<svg xmlns="http://www.w3.org/2000/svg" width="199" height="42" fill="none" opt="1"><g fill="#000" clip-path="url(#a)"><path d="M109.322 8.836h-.9v25.022h.9zM155.765 25.789h-1.564v7.229h1.564zM155.765 23.015h-1.564v1.564h1.564zM125.815 25.538c-2.125 0-3.777 1.711-3.777 3.895a3.9 3.9 0 0 0 3.895 3.895c1.21 0 2.331-.546 3.069-1.49l-1.387-.753a2.33 2.33 0 0 1-1.682.708 2.35 2.35 0 0 1-2.198-1.52l-.03-.058h5.887v-.768c0-2.198-1.652-3.91-3.777-3.91m-2.125 3.127.015-.059a2.18 2.18 0 0 1 2.095-1.52c.959 0 1.785.59 2.095 1.52l.015.06zM118.025 28.695c-1.401-.221-1.667-.531-1.667-.974 0-.546.472-.87 1.269-.87.752 0 1.269.354 1.446 1.018h1.623c-.177-1.476-1.269-2.331-3.069-2.331-1.726 0-2.921.93-2.921 2.242 0 1.269.782 1.918 2.7 2.243 1.475.28 1.755.546 1.755 1.047 0 .576-.531.93-1.401.93-.649 0-1.446-.177-1.697-1.18h-1.593c.177 1.578 1.342 2.493 3.275 2.493 1.844 0 3.098-.974 3.098-2.405-.014-1.24-.841-1.918-2.818-2.213M144.773 29.713c0 1.18-.826 2.006-2.021 2.006s-2.022-.826-2.022-2.006v-3.895h-1.623v3.895c0 1.018.369 1.977 1.077 2.626.679.65 1.594 1.003 2.568 1.003.973 0 1.903-.354 2.567-1.003.693-.649 1.077-1.593 1.077-2.626v-3.895h-1.623zM134.711 27.087c.723 0 1.402.325 1.845.9l1.401-.693a3.88 3.88 0 0 0-3.246-1.741 3.89 3.89 0 0 0-3.895 3.895 3.9 3.9 0 0 0 3.895 3.895c1.313 0 2.523-.65 3.246-1.741l-1.401-.694c-.443.576-1.122.9-1.845.9a2.354 2.354 0 0 1-2.345-2.36 2.336 2.336 0 0 1 2.345-2.36M159.601 23.915h-1.622v5.7829999999999995c0 1.018.368 1.977 1.077 2.626.147.148.295.28.472.37.605.398 1.327.619 2.095.619h.664V31.69h-.664c-1.195 0-2.022-.826-2.022-2.007v-2.316h2.686v-1.549h-2.686zM149.996 25.803h-1.623v7.244h1.623V29.98c0-1.461 1.18-2.641 2.641-2.641v-1.623a4.24 4.24 0 0 0-2.641.944zM168.527 25.848l-1.343 5.636h-.251c-.162 0-.324-.162-.383-.354l-1.343-5.297h-1.682l1.461 5.71c.236.87.988 1.475 1.829 1.534l-.678 2.863h1.578l.679-2.833h.015v-.06l1.726-7.199zM129.799 13.661a3.9 3.9 0 0 0-3.895 3.895 3.91 3.91 0 0 0 3.895 3.895 3.9 3.9 0 0 0 3.895-3.895 3.91 3.91 0 0 0-3.895-3.895m0 6.182a2.29 2.29 0 0 1-2.287-2.287 2.28 2.28 0 0 1 2.287-2.286 2.29 2.29 0 0 1 2.287 2.286 2.29 2.29 0 0 1-2.287 2.287M186.379 14.635c-.664-.634-1.578-.988-2.567-.988-.737 0-1.446.206-2.036.575v-.28h-1.623v7.244h1.623v-3.924c0-1.18.841-1.992 2.036-1.992s2.036.826 2.036 1.992v3.894h1.623v-3.894c0-1.033-.383-1.963-1.092-2.627M161.681 13.661c-.737 0-1.446.207-2.036.576v-3.172h-1.623v10.121h1.623v-3.91c0-1.18.841-1.992 2.036-1.992s2.036.826 2.036 1.992v3.895h1.623v-3.895c0-1.033-.383-1.962-1.092-2.626-.663-.65-1.578-.989-2.567-.989M118.35 13.661a3.95 3.95 0 0 0-2.287.738v-3.334h-1.623V21.17h1.623v-.458a3.95 3.95 0 0 0 2.287.738 3.9 3.9 0 0 0 3.895-3.895 3.9 3.9 0 0 0-3.895-3.895m0 6.182a2.29 2.29 0 0 1-2.287-2.287 2.28 2.28 0 0 1 2.287-2.287 2.28 2.28 0 0 1 2.287 2.287 2.28 2.28 0 0 1-2.287 2.287M172.894 14.458l-.074-.059a3.83 3.83 0 0 0-2.272-.738 3.9 3.9 0 0 0-3.895 3.895 3.91 3.91 0 0 0 3.895 3.895c.826 0 1.608-.25 2.272-.737l.074-.06v.502h1.549v-7.214h-1.549zm-2.346 5.459a2.367 2.367 0 0 1-2.36-2.36 2.367 2.367 0 0 1 2.36-2.361 2.355 2.355 0 0 1 2.346 2.36c0 1.299-1.062 2.36-2.346 2.36M138.297 15.196c.723 0 1.402.324 1.844.9l1.402-.694a3.88 3.88 0 0 0-3.246-1.74 3.89 3.89 0 0 0-3.895 3.894 3.9 3.9 0 0 0 3.895 3.895c1.313 0 2.523-.649 3.246-1.74l-1.402-.694c-.442.575-1.121.9-1.844.9a2.367 2.367 0 0 1-2.36-2.36c.014-1.299 1.062-2.361 2.36-2.361M153.449 15.196c.723 0 1.401.324 1.844.9l1.401-.694a3.87 3.87 0 0 0-3.245-1.74 3.89 3.89 0 0 0-3.895 3.894 3.9 3.9 0 0 0 3.895 3.895c1.313 0 2.523-.649 3.245-1.74l-1.401-.694c-.443.575-1.121.9-1.844.9-1.299 0-2.346-1.062-2.361-2.36a2.367 2.367 0 0 1 2.361-2.361M149.495 13.956h-2.007l-2.316 2.774h-.9v-5.665h-1.549V21.17h1.549v-2.774h.9l2.316 2.774h2.007l-2.995-3.6zM124.9 11.065h-1.564V21.17h1.564zM178.204 13.941h-1.563v7.23h1.563zM178.204 11.168h-1.563v1.564h1.563zM104.114 23.162c0-5.517-4.19-9.84-9.546-9.84s-9.546 4.323-9.546 9.84c0 5.43 4.412 9.841 9.841 9.841a9.74 9.74 0 0 0 7.746-3.777l-3.497-1.918a5.88 5.88 0 0 1-4.249 1.785c-2.449 0-4.677-1.534-5.562-3.836l-.059-.162h14.872zm-14.916-1.947.059-.162c.796-2.331 2.877-3.836 5.311-3.836s4.515 1.505 5.311 3.836l.06.162zM82.041 23.162c0-5.517-4.19-9.84-9.545-9.84-5.356 0-9.546 4.323-9.546 9.84 0 5.43 4.412 9.841 9.84 9.841a9.74 9.74 0 0 0 7.746-3.777l-3.496-1.918a5.88 5.88 0 0 1-4.25 1.785c-2.448 0-4.676-1.534-5.561-3.836l-.06-.162h14.872zm-14.915-1.947.058-.162c.797-2.331 2.877-3.836 5.312-3.836 2.434 0 4.514 1.505 5.311 3.836l.06.162zM33.798 33.003c-5.43 0-9.841-4.411-9.841-9.84s4.411-9.841 9.84-9.841a9.84 9.84 0 0 1 8.204 4.396l-3.541 1.756a5.92 5.92 0 0 0-4.662-2.257 5.957 5.957 0 0 0-5.946 5.945 5.957 5.957 0 0 0 5.946 5.946c1.83 0 3.526-.826 4.662-2.257L42 28.607a9.85 9.85 0 0 1-8.202 4.396M16.728 14.045v1.268l-.192-.132a9.7 9.7 0 0 0-5.754-1.86c-5.43 0-9.84 4.412-9.84 9.841 0 5.43 4.41 9.841 9.84 9.841 2.08 0 4.072-.65 5.754-1.859l.192-.133v1.27h3.895V14.044zm-5.946 15.048a5.957 5.957 0 0 1-5.946-5.945 5.957 5.957 0 0 1 5.946-5.946c3.275 0 5.946 2.685 5.946 5.96s-2.67 5.931-5.946 5.931M57.02 32.28l-5.843-7.022h-2.302v7.022H44.98V6.757h3.895v14.296h2.302l5.828-7.008h5.075l-7.584 9.118 7.599 9.117z"/></g><defs><clipPath id="a"><path fill="#fff" d="M.941 0h197.647v42H.941z"/></clipPath></defs></svg>