<svg xmlns="http://www.w3.org/2000/svg" width="572" height="572" fill="none" opt="1"><g clip-path="url(#a)"><g filter="url(#b)"><path fill="url(#c)" d="M276.353 521.701c83.758 0 151.657-67.501 151.657-150.767 0-31.953-9.999-61.585-27.056-85.971L275.338 360.14l-125.616-72.199c-15.818 23.804-25.026 52.329-25.026 82.993 0 83.266 67.899 150.767 151.657 150.767"/><path fill="url(#d)" d="M277.378 416.766v103.845c23.115-45.306 47.092-89.904 71.322-134.661 18.312-33.827 34.992-66.711 52.183-101.094-46.787 31.952-83.34 12.487-95.547 6.383-26.475-13.237-28.529-45.076-27.388-59.34V98.384L176.85 248.956c-3.302 4.918-1.63 11.611 3.596 14.398l58.703 31.308c23.394 1.332 38.229 30.241 38.229 46.217z"/><path fill="url(#e)" d="M277.378 416.766v103.845c23.115-45.306 47.092-89.904 71.322-134.661 18.312-33.827 34.992-66.711 52.183-101.094-46.787 31.952-83.34 12.487-95.547 6.383-26.475-13.237-28.529-45.076-27.388-59.34V98.384L176.85 248.956c-3.302 4.918-1.63 11.611 3.596 14.398l58.703 31.308c23.394 1.332 38.229 30.241 38.229 46.217z"/><path fill="url(#f)" fill-opacity=".7" d="M277.378 416.766v103.845c23.115-45.306 47.092-89.904 71.322-134.661 18.312-33.827 34.992-66.711 52.183-101.094-46.787 31.952-83.34 12.487-95.547 6.383-26.475-13.237-28.529-45.076-27.388-59.34V98.384L176.85 248.956c-3.302 4.918-1.63 11.611 3.596 14.398l58.703 31.308c23.394 1.332 38.229 30.241 38.229 46.217z"/><path fill="url(#g)" d="M277.378 416.766v103.845c-23.115-45.306-48.805-89.904-73.034-134.661-16.466-30.416-32.784-58.599-48.405-88.969-1.416-2.751 1.918-5.738 4.637-4.26 42.208 22.948 75.795 4.186 87.132-1.482 26.474-13.237 30.811-45.076 29.67-59.34V98.384l99.027 150.694c3.21 4.884 1.566 11.467-3.563 14.268l-58.377 31.887c-21.449 10.841-33.431 19.97-37.087 46.787z"/><path fill="url(#h)" d="M277.378 416.766v103.845c-23.115-45.306-48.805-89.904-73.034-134.661-16.466-30.416-32.784-58.599-48.405-88.969-1.416-2.751 1.918-5.738 4.637-4.26 42.208 22.948 75.795 4.186 87.132-1.482 26.474-13.237 30.811-45.076 29.67-59.34V98.384l99.027 150.694c3.21 4.884 1.566 11.467-3.563 14.268l-58.377 31.887c-21.449 10.841-33.431 19.97-37.087 46.787z"/><path fill="url(#i)" fill-opacity=".8" d="M277.378 416.766v103.845c-23.115-45.306-48.805-89.904-73.034-134.661-16.466-30.416-32.784-58.599-48.405-88.969-1.416-2.751 1.918-5.738 4.637-4.26 42.208 22.948 75.795 4.186 87.132-1.482 26.474-13.237 30.811-45.076 29.67-59.34V98.384l99.027 150.694c3.21 4.884 1.566 11.467-3.563 14.268l-58.377 31.887c-21.449 10.841-33.431 19.97-37.087 46.787z"/><path fill="url(#j)" fill-opacity=".7" d="M277.378 416.766v103.845c-23.115-45.306-48.805-89.904-73.034-134.661-16.466-30.416-32.784-58.599-48.405-88.969-1.416-2.751 1.918-5.738 4.637-4.26 42.208 22.948 75.795 4.186 87.132-1.482 26.474-13.237 30.811-45.076 29.67-59.34V98.384l99.027 150.694c3.21 4.884 1.566 11.467-3.563 14.268l-58.377 31.887c-21.449 10.841-33.431 19.97-37.087 46.787z"/><path fill="url(#k)" fill-opacity=".8" d="M277.378 416.766v103.845c-23.115-45.306-48.805-89.904-73.034-134.661-16.466-30.416-32.784-58.599-48.405-88.969-1.416-2.751 1.918-5.738 4.637-4.26 42.208 22.948 75.795 4.186 87.132-1.482 26.474-13.237 30.811-45.076 29.67-59.34V98.384l99.027 150.694c3.21 4.884 1.566 11.467-3.563 14.268l-58.377 31.887c-21.449 10.841-33.431 19.97-37.087 46.787z"/><path fill="url(#l)" d="m277.04 359.137-126.097-71.322 127.238 233.366z"/><path fill="url(#m)" d="m277.04 359.138 123.843-74.282-124.414 236.325z"/></g><path fill="url(#n)" d="M286.166 497.677c83.757 0 151.656-67.501 151.656-150.767 0-31.953-9.999-61.585-27.056-85.971L285.15 336.116l-125.616-72.199c-15.817 23.804-25.025 52.33-25.025 82.993 0 83.266 67.899 150.767 151.657 150.767"/><path fill="url(#o)" d="M287.19 392.742v103.845c23.115-45.306 47.093-89.904 71.322-134.661 18.313-33.827 34.992-66.711 52.184-101.094-46.787 31.952-83.34 12.487-95.548 6.383-26.474-13.237-28.529-45.076-27.387-59.34V74.36L186.662 224.932c-3.302 4.918-1.63 11.611 3.596 14.398l58.703 31.308c23.394 1.332 38.229 30.241 38.229 46.217z"/><path fill="url(#p)" d="M287.19 392.742v103.845c23.115-45.306 47.093-89.904 71.322-134.661 18.313-33.827 34.992-66.711 52.184-101.094-46.787 31.952-83.34 12.487-95.548 6.383-26.474-13.237-28.529-45.076-27.387-59.34V74.36L186.662 224.932c-3.302 4.918-1.63 11.611 3.596 14.398l58.703 31.308c23.394 1.332 38.229 30.241 38.229 46.217z"/><path fill="url(#q)" fill-opacity=".7" d="M287.19 392.742v103.845c23.115-45.306 47.093-89.904 71.322-134.661 18.313-33.827 34.992-66.711 52.184-101.094-46.787 31.952-83.34 12.487-95.548 6.383-26.474-13.237-28.529-45.076-27.387-59.34V74.36L186.662 224.932c-3.302 4.918-1.63 11.611 3.596 14.398l58.703 31.308c23.394 1.332 38.229 30.241 38.229 46.217z"/><path fill="url(#r)" d="M287.19 392.742v103.845c-23.115-45.306-48.804-89.904-73.034-134.661-16.465-30.416-32.784-58.599-48.405-88.969-1.415-2.751 1.919-5.738 4.637-4.26 42.209 22.948 75.795 4.187 87.132-1.482 26.475-13.237 30.811-45.076 29.67-59.34V74.36l99.028 150.695c3.209 4.883 1.565 11.466-3.563 14.267l-58.377 31.887c-21.449 10.841-33.431 19.97-37.088 46.787z"/><path fill="url(#s)" d="M287.19 392.742v103.845c-23.115-45.306-48.804-89.904-73.034-134.661-16.465-30.416-32.784-58.599-48.405-88.969-1.415-2.751 1.919-5.738 4.637-4.26 42.209 22.948 75.795 4.187 87.132-1.482 26.475-13.237 30.811-45.076 29.67-59.34V74.36l99.028 150.695c3.209 4.883 1.565 11.466-3.563 14.267l-58.377 31.887c-21.449 10.841-33.431 19.97-37.088 46.787z"/><path fill="url(#t)" fill-opacity=".8" d="M287.19 392.742v103.845c-23.115-45.306-48.804-89.904-73.034-134.661-16.465-30.416-32.784-58.599-48.405-88.969-1.415-2.751 1.919-5.738 4.637-4.26 42.209 22.948 75.795 4.187 87.132-1.482 26.475-13.237 30.811-45.076 29.67-59.34V74.36l99.028 150.695c3.209 4.883 1.565 11.466-3.563 14.267l-58.377 31.887c-21.449 10.841-33.431 19.97-37.088 46.787z"/><path fill="url(#u)" fill-opacity=".7" d="M287.19 392.742v103.845c-23.115-45.306-48.804-89.904-73.034-134.661-16.465-30.416-32.784-58.599-48.405-88.969-1.415-2.751 1.919-5.738 4.637-4.26 42.209 22.948 75.795 4.187 87.132-1.482 26.475-13.237 30.811-45.076 29.67-59.34V74.36l99.028 150.695c3.209 4.883 1.565 11.466-3.563 14.267l-58.377 31.887c-21.449 10.841-33.431 19.97-37.088 46.787z"/><path fill="url(#v)" fill-opacity=".8" d="M287.19 392.742v103.845c-23.115-45.306-48.804-89.904-73.034-134.661-16.465-30.416-32.784-58.599-48.405-88.969-1.415-2.751 1.919-5.738 4.637-4.26 42.209 22.948 75.795 4.187 87.132-1.482 26.475-13.237 30.811-45.076 29.67-59.34V74.36l99.028 150.695c3.209 4.883 1.565 11.466-3.563 14.267l-58.377 31.887c-21.449 10.841-33.431 19.97-37.088 46.787z"/><path fill="url(#w)" d="m286.853 335.113-126.098-71.322 127.239 233.366z"/><path fill="url(#x)" d="m286.853 335.114 123.843-74.282-124.414 236.325z"/></g><defs><radialGradient id="c" cx="0" cy="0" r="1" gradientTransform="matrix(-91.41314 -103.88507 138.93684 -122.25677 253.984 423.317)" gradientUnits="userSpaceOnUse"><stop stop-color="#5CEAB7" stop-opacity="0"/><stop offset=".671" stop-color="#5CF1D6" stop-opacity=".52"/><stop offset="1" stop-color="#108DE8" stop-opacity=".92"/></radialGradient><radialGradient id="d" cx="0" cy="0" r="1" gradientTransform="rotate(-119.878 464.775 230.844)scale(702.124 1585.38)" gradientUnits="userSpaceOnUse"><stop offset=".169" stop-color="#584AF6"/><stop offset=".944" stop-color="#A5FFDF" stop-opacity=".2"/></radialGradient><radialGradient id="e" cx="0" cy="0" r="1" gradientTransform="matrix(202.55448 -85.58653 110.33957 261.1366 150.943 257.004)" gradientUnits="userSpaceOnUse"><stop stop-color="#2512FF"/><stop offset=".592" stop-color="#00FFC2" stop-opacity="0"/></radialGradient><radialGradient id="f" cx="0" cy="0" r="1" gradientTransform="matrix(64.47518 48.49896 -146.57182 194.85458 170.342 200.517)" gradientUnits="userSpaceOnUse"><stop offset=".192" stop-color="#491CFF"/><stop offset="1" stop-color="#1CFFD6" stop-opacity="0"/></radialGradient><radialGradient id="g" cx="0" cy="0" r="1" gradientTransform="matrix(-32.86029 282.43584 -178.54364 -20.77284 299.06 137.754)" gradientUnits="userSpaceOnUse"><stop stop-color="#82FFBB"/><stop offset=".365" stop-color="#61E2EA" stop-opacity=".87"/><stop offset=".866" stop-color="#6BD3FF" stop-opacity="0"/></radialGradient><radialGradient id="h" cx="0" cy="0" r="1" gradientTransform="matrix(178.59078 9.69983 -4.81307 88.61699 266.199 300.368)" gradientUnits="userSpaceOnUse"><stop stop-color="#3B4CE4"/><stop offset=".413" stop-color="#2F4DEA" stop-opacity=".687"/><stop offset="1" stop-color="#0047FF" stop-opacity="0"/></radialGradient><radialGradient id="j" cx="0" cy="0" r="1" gradientTransform="matrix(191.14273 -120.962 161.95341 255.91689 213.706 421.901)" gradientUnits="userSpaceOnUse"><stop offset=".023" stop-color="#7DFFD8"/><stop offset=".274" stop-color="#2DFF9A" stop-opacity=".7"/><stop offset=".621" stop-color="#2D4FFF" stop-opacity="0"/></radialGradient><radialGradient id="k" cx="0" cy="0" r="1" gradientTransform="rotate(16.631 -516.13 893.896)scale(91.705 221.373)" gradientUnits="userSpaceOnUse"><stop offset=".095" stop-color="#5446FF"/><stop offset=".88" stop-color="#4737FF" stop-opacity="0"/></radialGradient><radialGradient id="n" cx="0" cy="0" r="1" gradientTransform="matrix(-91.41314 -103.88507 138.93684 -122.25677 263.796 399.293)" gradientUnits="userSpaceOnUse"><stop stop-color="#5CEAB7" stop-opacity="0"/><stop offset=".671" stop-color="#5CF1D6" stop-opacity=".52"/><stop offset="1" stop-color="#108DE8" stop-opacity=".92"/></radialGradient><radialGradient id="o" cx="0" cy="0" r="1" gradientTransform="rotate(-119.878 462.728 215.993)scale(702.124 1585.38)" gradientUnits="userSpaceOnUse"><stop offset=".169" stop-color="#584AF6"/><stop offset=".944" stop-color="#A5FFDF" stop-opacity=".5"/></radialGradient><radialGradient id="p" cx="0" cy="0" r="1" gradientTransform="matrix(202.55448 -85.58653 110.33957 261.1366 160.755 232.98)" gradientUnits="userSpaceOnUse"><stop stop-color="#2512FF"/><stop offset=".592" stop-color="#00FFC2" stop-opacity="0"/></radialGradient><radialGradient id="q" cx="0" cy="0" r="1" gradientTransform="matrix(64.47518 48.49896 -146.57182 194.85458 180.155 176.493)" gradientUnits="userSpaceOnUse"><stop offset=".192" stop-color="#491CFF"/><stop offset="1" stop-color="#1CFFD6" stop-opacity=".4"/></radialGradient><radialGradient id="r" cx="0" cy="0" r="1" gradientTransform="matrix(-32.86029 282.43584 -178.54364 -20.77284 308.872 113.73)" gradientUnits="userSpaceOnUse"><stop stop-color="#82FFBB"/><stop offset=".365" stop-color="#61E2EA" stop-opacity=".87"/><stop offset=".866" stop-color="#6BD3FF" stop-opacity="0"/></radialGradient><radialGradient id="s" cx="0" cy="0" r="1" gradientTransform="matrix(178.59078 9.69983 -4.81307 88.61699 276.012 276.344)" gradientUnits="userSpaceOnUse"><stop stop-color="#3B4CE4"/><stop offset=".413" stop-color="#2F4DEA" stop-opacity=".687"/><stop offset="1" stop-color="#0047FF" stop-opacity="0"/></radialGradient><radialGradient id="u" cx="0" cy="0" r="1" gradientTransform="matrix(191.14273 -120.962 161.95341 255.91689 223.519 397.877)" gradientUnits="userSpaceOnUse"><stop offset=".023" stop-color="#7DFFD8"/><stop offset=".274" stop-color="#2DFF9A" stop-opacity=".7"/><stop offset=".621" stop-color="#2D4FFF" stop-opacity="0"/></radialGradient><radialGradient id="v" cx="0" cy="0" r="1" gradientTransform="rotate(16.631 -429.039 915.453)scale(91.705 221.373)" gradientUnits="userSpaceOnUse"><stop offset=".095" stop-color="#5446FF"/><stop offset=".88" stop-color="#4737FF" stop-opacity="0"/></radialGradient><linearGradient id="i" x1="283.083" x2="206.899" y1="500.641" y2="330.308" gradientUnits="userSpaceOnUse"><stop stop-color="#2965FE"/><stop offset="1" stop-color="#27EEFF" stop-opacity=".01"/></linearGradient><linearGradient id="l" x1="229.112" x2="193.166" y1="327.756" y2="404.783" gradientUnits="userSpaceOnUse"><stop stop-color="#3840FF"/><stop offset="1" stop-color="#25FFFF" stop-opacity="0"/></linearGradient><linearGradient id="m" x1="276.469" x2="361.485" y1="371.69" y2="404.784" gradientUnits="userSpaceOnUse"><stop stop-color="#1464FF"/><stop offset="1" stop-color="#7BE6BF" stop-opacity="0"/></linearGradient><linearGradient id="t" x1="292.896" x2="216.712" y1="476.617" y2="306.284" gradientUnits="userSpaceOnUse"><stop stop-color="#2965FE"/><stop offset="1" stop-color="#27EEFF" stop-opacity=".01"/></linearGradient><linearGradient id="w" x1="238.924" x2="202.978" y1="303.732" y2="380.759" gradientUnits="userSpaceOnUse"><stop stop-color="#3840FF"/><stop offset="1" stop-color="#25FFFF" stop-opacity="0"/></linearGradient><linearGradient id="x" x1="286.282" x2="371.298" y1="347.666" y2="380.76" gradientUnits="userSpaceOnUse"><stop stop-color="#1464FF"/><stop offset="1" stop-color="#71FFF6" stop-opacity="0"/></linearGradient><clipPath id="a"><path fill="#fff" d="M0 0h572v572H0z"/></clipPath><filter id="b" width="411.313" height="531.317" x="70.696" y="44.384" color-interpolation-filters="sRGB" filterUnits="userSpaceOnUse"><feFlood flood-opacity="0" result="BackgroundImageFix"/><feBlend in="SourceGraphic" in2="BackgroundImageFix" result="shape"/><feGaussianBlur result="effect1_foregroundBlur_10755_377848" stdDeviation="27"/></filter></defs></svg>