<svg xmlns="http://www.w3.org/2000/svg" width="70" height="70" fill="none" opt="1"><g fill="#000" clip-path="url(#a)"><path d="M52.497 43.905c0-2.28-3.746-4.26-9.254-5.267v.002c-2.393.613-5.219.967-8.245.967s-5.852-.354-8.245-.969c-5.506 1.007-9.254 2.987-9.254 5.267 0 3.298 7.835 5.97 17.5 5.97 9.663 0 17.498-2.67 17.498-5.97M49.036 33.24c0-1.878-3.223-3.5-7.901-4.27-1.798.45-3.895.71-6.137.71s-4.338-.259-6.136-.71c-4.678.77-7.901 2.393-7.901 4.27 0 2.62 6.285 4.746 14.037 4.746s14.038-2.125 14.038-4.746M45.575 24.594c0-1.986-4.707-3.594-10.513-3.594-5.805 0-10.512 1.608-10.512 3.593s4.707 3.593 10.512 3.593 10.513-1.609 10.513-3.593"/><g fill-opacity=".22" filter="url(#b)" opacity=".7"><path d="M60.372 49.307c0-2.556-4.12-4.778-10.18-5.906v.002c-2.632.688-5.74 1.084-9.069 1.084-3.328 0-6.437-.396-9.07-1.086-6.056 1.128-10.179 3.35-10.179 5.905 0 3.698 8.619 6.694 19.25 6.694s19.248-2.995 19.248-6.693M56.564 37.349c0-2.106-3.545-3.924-8.69-4.788-1.979.505-4.285.796-6.75.796-2.466 0-4.773-.29-6.75-.797-5.147.865-8.692 2.684-8.692 4.789 0 2.938 6.914 5.32 15.441 5.32s15.441-2.382 15.441-5.32M52.758 27.654c0-2.226-5.178-4.029-11.564-4.029s-11.564 1.803-11.564 4.03c0 2.223 5.178 4.026 11.564 4.026s11.564-1.803 11.564-4.027"/></g></g><defs><clipPath id="a"><rect width="70" height="70" fill="#fff" rx="35"/></clipPath><filter id="b" width="60.498" height="54.375" x="10.874" y="12.625" color-interpolation-filters="sRGB" filterUnits="userSpaceOnUse"><feFlood flood-opacity="0" result="BackgroundImageFix"/><feBlend in="SourceGraphic" in2="BackgroundImageFix" result="shape"/><feGaussianBlur result="effect1_foregroundBlur_11115_58705" stdDeviation="5.5"/></filter></defs></svg>