<svg xmlns="http://www.w3.org/2000/svg" width="56" height="56" fill="none" opt="1"><path fill="#00D395" fill-rule="evenodd" d="M17.32 38.705a2.59 2.59 0 0 1-1.22-2.2v-5.012c0-.594.478-1.077 1.065-1.074.188 0 .372.051.534.146l11.16 6.593a2.16 2.16 0 0 1 1.056 1.86v5.19a1.28 1.28 0 0 1-1.27 1.292 1.3 1.3 0 0 1-.669-.19zm16.635-9.512a2.16 2.16 0 0 1 1.056 1.86v10.534c0 .31-.165.597-.433.749l-2.443 1.392a.4.4 0 0 1-.099.041v-5.85a2.16 2.16 0 0 0-1.035-1.848l-9.8-5.94v-6.603c0-.594.477-1.077 1.065-1.074.187 0 .372.051.534.146zm4.886-7.78a2.16 2.16 0 0 1 1.057 1.861v15.387a.87.87 0 0 1-.448.756l-2.316 1.267V29.973c0-.757-.392-1.457-1.03-1.847l-10.019-6.088v-6.262c0-.19.051-.377.142-.54a1.06 1.06 0 0 1 1.453-.39z" clip-rule="evenodd"/><g filter="url(#a)" opacity=".2"><path fill="#00D395" fill-rule="evenodd" d="M21.519 34.504a2.59 2.59 0 0 1-1.22-2.2v-5.01c0-.596.478-1.078 1.066-1.075.187 0 .372.051.534.146l11.16 6.593a2.16 2.16 0 0 1 1.056 1.86v5.19a1.28 1.28 0 0 1-1.271 1.292 1.3 1.3 0 0 1-.669-.19zm16.635-9.511a2.16 2.16 0 0 1 1.056 1.86v10.534c0 .31-.165.597-.433.749l-2.443 1.392a.4.4 0 0 1-.098.041v-5.85c0-.756-.393-1.459-1.036-1.848l-9.8-5.94v-6.603c0-.595.478-1.077 1.065-1.074.187 0 .372.051.534.146zm4.886-7.78a2.16 2.16 0 0 1 1.058 1.861v15.387a.87.87 0 0 1-.448.756l-2.316 1.267V25.773c0-.757-.393-1.457-1.03-1.847l-10.02-6.088v-6.262c0-.19.051-.377.142-.541a1.06 1.06 0 0 1 1.453-.39z" clip-rule="evenodd"/></g><defs><filter id="a" width="43.799" height="50.8" x="10.299" y=".5" color-interpolation-filters="sRGB" filterUnits="userSpaceOnUse"><feFlood flood-opacity="0" result="BackgroundImageFix"/><feBlend in="SourceGraphic" in2="BackgroundImageFix" result="shape"/><feGaussianBlur result="effect1_foregroundBlur_11115_3329" stdDeviation="5"/></filter></defs></svg>