<svg xmlns="http://www.w3.org/2000/svg" width="80" height="80" fill="none" opt="1"><g clip-path="url(#a)"><g filter="url(#b)" opacity=".5"><path fill="url(#c)" d="M43.5 61C57.583 61 69 49.583 69 35.5S57.583 10 43.5 10 18 21.417 18 35.5 29.417 61 43.5 61"/><path fill="url(#d)" d="M46.826 56.882c11.765 0 21.303-9.555 21.303-21.342S58.59 14.198 46.826 14.198 25.523 23.752 25.523 35.54s9.538 21.342 21.303 21.342"/><path fill="url(#e)" d="M43.064 51.418c8.813 0 15.958-7.127 15.958-15.918 0-8.79-7.145-15.917-15.958-15.917-8.812 0-15.957 7.126-15.957 15.917s7.145 15.918 15.957 15.918"/><path fill="url(#f)" d="M37.283 43.894a8.355 8.355 0 1 0 0-16.71 8.355 8.355 0 0 0 0 16.71"/></g><path fill="url(#g)" d="M40 65c13.807 0 25-11.193 25-25S53.807 15 40 15 15 26.193 15 40s11.193 25 25 25"/><path fill="url(#h)" d="M43.26 60.963c11.535 0 20.886-9.368 20.886-20.924s-9.35-20.924-20.885-20.924-20.885 9.368-20.885 20.924 9.35 20.924 20.885 20.924"/><path fill="url(#i)" d="M39.573 55.606c8.64 0 15.645-6.987 15.645-15.606s-7.005-15.605-15.645-15.605S23.929 31.38 23.929 40s7.004 15.606 15.644 15.606"/><path fill="url(#j)" d="M33.905 48.23a8.191 8.191 0 1 0 0-16.382 8.191 8.191 0 0 0 0 16.382"/></g><defs><radialGradient id="c" cx="0" cy="0" r="1" gradientTransform="rotate(90 4 39.5)scale(25.5)" gradientUnits="userSpaceOnUse"><stop stop-color="#0E122B"/><stop offset=".253" stop-color="#131D52"/><stop offset=".608" stop-color="#2750AA"/><stop offset=".927" stop-color="#A3EAFF"/><stop offset="1" stop-color="#fff"/></radialGradient><radialGradient id="d" cx="0" cy="0" r="1" gradientTransform="matrix(0 21.3424 -21.3028 0 46.826 35.54)" gradientUnits="userSpaceOnUse"><stop stop-color="#F85F97"/><stop offset=".547" stop-color="#330E18"/><stop offset="1" stop-color="#F00A38"/></radialGradient><radialGradient id="e" cx="0" cy="0" r="1" gradientTransform="matrix(0 15.9177 -15.9573 0 43.064 35.5)" gradientUnits="userSpaceOnUse"><stop stop-color="#23164B"/><stop offset=".49" stop-color="#15105D"/><stop offset=".94" stop-color="#2D68C6"/><stop offset="1" stop-color="#fff"/></radialGradient><radialGradient id="f" cx="0" cy="0" r="1" gradientTransform="rotate(90 .872 36.412)scale(8.35482)" gradientUnits="userSpaceOnUse"><stop stop-color="#BB2354"/><stop offset=".557" stop-color="#CE2C65"/><stop offset="1" stop-color="#FF94CE"/></radialGradient><radialGradient id="g" cx="0" cy="0" r="1" gradientTransform="rotate(90 0 40)scale(25)" gradientUnits="userSpaceOnUse"><stop stop-color="#0E122B"/><stop offset=".253" stop-color="#131D52"/><stop offset=".608" stop-color="#2750AA"/><stop offset=".927" stop-color="#A3EAFF"/><stop offset="1" stop-color="#fff"/></radialGradient><radialGradient id="h" cx="0" cy="0" r="1" gradientTransform="matrix(0 20.9239 -20.8851 0 43.26 40.04)" gradientUnits="userSpaceOnUse"><stop stop-color="#F85F97"/><stop offset=".547" stop-color="#330E18"/><stop offset="1" stop-color="#F00A38"/></radialGradient><radialGradient id="i" cx="0" cy="0" r="1" gradientTransform="matrix(0 15.6056 -15.6444 0 39.573 40)" gradientUnits="userSpaceOnUse"><stop stop-color="#23164B"/><stop offset=".49" stop-color="#15105D"/><stop offset=".94" stop-color="#2D68C6"/><stop offset="1" stop-color="#fff"/></radialGradient><radialGradient id="j" cx="0" cy="0" r="1" gradientTransform="rotate(90 -3.067 36.972)scale(8.191)" gradientUnits="userSpaceOnUse"><stop stop-color="#BB2354"/><stop offset=".557" stop-color="#CE2C65"/><stop offset="1" stop-color="#FF94CE"/></radialGradient><clipPath id="a"><path fill="#fff" d="M0 0h80v80H0z"/></clipPath><filter id="b" width="79" height="79" x="4" y="-4" color-interpolation-filters="sRGB" filterUnits="userSpaceOnUse"><feFlood flood-opacity="0" result="BackgroundImageFix"/><feBlend in="SourceGraphic" in2="BackgroundImageFix" result="shape"/><feGaussianBlur result="effect1_foregroundBlur_4444_1834" stdDeviation="7"/></filter></defs></svg>