<svg xmlns="http://www.w3.org/2000/svg" width="44" height="44" fill="none" opt="1"><g clip-path="url(#a)"><g filter="url(#b)"><path fill="#71D9FF" fill-rule="evenodd" d="M23.782 11.55h-4.264a.21.21 0 0 0-.21.213v1.42c0 .118.093.213.21.213h4.264a.21.21 0 0 0 .211-.213v-1.42a.21.21 0 0 0-.211-.213m-12.117 5.224-3.17-5.026a.42.42 0 0 0-.356-.197H6.812a.21.21 0 0 0-.211.213v10.43c0 .117.094.213.211.213h1.41a.21.21 0 0 0 .21-.213v-6.86c0-.07.093-.098.13-.038l2.983 4.73a.21.21 0 0 0 .357 0l2.982-4.73c.038-.06.13-.033.13.038v6.859c0 .118.094.213.21.213h1.41a.21.21 0 0 0 .21-.213v-10.43a.21.21 0 0 0-.21-.212h-1.326a.42.42 0 0 0-.357.197l-3.168 5.027a.07.07 0 0 1-.118 0m13.772 1.127h-4.228a.07.07 0 0 0-.07.072v2.516c0 .04.032.071.07.071h5.883c.117 0 .211.096.211.213v1.42a.21.21 0 0 1-.211.214h-7.574a.21.21 0 0 1-.21-.213v-5.926c0-.118.093-.213.21-.213h5.919c.117 0 .211.095.211.213v1.42a.21.21 0 0 1-.211.213m9.189-6.074-2.861 7.71a.07.07 0 0 1-.132 0l-2.86-7.71a.42.42 0 0 0-.396-.277h-1.618a.213.213 0 0 0-.198.288l3.87 10.43c.031.083.11.139.198.139h2.141a.21.21 0 0 0 .198-.139l3.869-10.43a.213.213 0 0 0-.198-.288h-1.617a.42.42 0 0 0-.396.277M8.074 26.133q-.647 0-1.06.427-.414.425-.414 1.081 0 .657.413 1.083t1.06.426q.773 0 1.182-.593l-.467-.362a.95.95 0 0 1-.305.265.8.8 0 0 1-.409.106.85.85 0 0 1-.647-.26.93.93 0 0 1-.248-.664q0-.402.248-.663a.85.85 0 0 1 .647-.26.87.87 0 0 1 .714.357l.468-.349q-.409-.594-1.182-.594m3.164 2.98 1.186-2.943h.441l1.182 2.944h-.616l-.189-.485h-1.2l-.188.485zm1.798-1.018-.391-1-.391 1zm3.123-1.925v2.944h.58v-1.006h.782a.86.86 0 0 0 .622-.26q.267-.26.267-.71 0-.448-.267-.709a.87.87 0 0 0-.622-.26zm1.258 1.367h-.679v-.8h.688q.165 0 .285.11a.38.38 0 0 1 .119.292.37.37 0 0 1-.121.287.42.42 0 0 1-.292.111m3.195 1.577v-2.945h.58v2.945zm5.115-2.945h-2.333v.535h.876v2.41h.584v-2.41h.873zm1.694 2.945 1.186-2.945h.441l1.182 2.945h-.616l-.189-.485h-1.2l-.189.485zm1.798-1.02-.391-1-.391 1zm3.122-1.925v2.945h1.968v-.535h-1.388v-2.41z" clip-rule="evenodd"/></g><path fill="#fff" fill-rule="evenodd" d="M23.782 13.2h-4.264a.21.21 0 0 0-.21.213v1.42c0 .118.093.213.21.213h4.264a.21.21 0 0 0 .211-.213v-1.42a.21.21 0 0 0-.211-.213m-12.117 5.224-3.17-5.026a.42.42 0 0 0-.356-.197H6.812a.21.21 0 0 0-.211.213v10.43c0 .117.094.212.211.212h1.41a.21.21 0 0 0 .21-.213v-6.859c0-.07.093-.098.13-.038l2.983 4.73a.21.21 0 0 0 .357 0l2.982-4.73c.038-.06.13-.033.13.038v6.859c0 .118.094.213.21.213h1.41a.21.21 0 0 0 .21-.213v-10.43a.21.21 0 0 0-.21-.212h-1.326a.42.42 0 0 0-.357.197l-3.168 5.026a.07.07 0 0 1-.118 0m13.772 1.128h-4.228a.07.07 0 0 0-.07.07v2.517c0 .04.032.071.07.071h5.883c.117 0 .211.095.211.213v1.42a.21.21 0 0 1-.211.214h-7.574a.21.21 0 0 1-.21-.213v-5.926c0-.118.093-.213.21-.213h5.919c.117 0 .211.095.211.213v1.42a.21.21 0 0 1-.211.213m9.189-6.075-2.861 7.71a.07.07 0 0 1-.132 0l-2.86-7.71a.42.42 0 0 0-.396-.277h-1.618a.213.213 0 0 0-.198.288l3.87 10.43c.031.083.11.139.198.139h2.141a.21.21 0 0 0 .198-.139l3.869-10.43a.213.213 0 0 0-.198-.288h-1.617a.42.42 0 0 0-.396.277M8.074 27.783q-.647 0-1.06.426T6.6 29.291q0 .657.413 1.083t1.06.426q.773 0 1.182-.593l-.467-.362a.95.95 0 0 1-.305.265.8.8 0 0 1-.409.106.85.85 0 0 1-.647-.26.93.93 0 0 1-.248-.664q0-.402.248-.663a.85.85 0 0 1 .647-.26.87.87 0 0 1 .714.357l.468-.35q-.409-.593-1.182-.593m3.164 2.98 1.186-2.944h.441l1.182 2.945h-.616l-.189-.485h-1.2l-.188.485zm1.798-1.018-.391-1.001-.391 1zm3.123-1.926v2.945h.58v-1.006h.782a.86.86 0 0 0 .622-.26q.267-.262.267-.71t-.267-.709a.87.87 0 0 0-.622-.26zm1.258 1.368h-.679v-.8h.688q.165 0 .285.11a.38.38 0 0 1 .119.292.37.37 0 0 1-.121.287.42.42 0 0 1-.292.111m3.195 1.577v-2.945h.58v2.945zm5.115-2.945h-2.333v.535h.876v2.41h.584v-2.41h.873zm1.694 2.945 1.186-2.945h.441l1.182 2.945h-.616l-.189-.485h-1.2l-.189.485zm1.798-1.02-.391-1-.391 1zm3.122-1.925v2.945h1.968v-.535h-1.388v-2.41z" clip-rule="evenodd"/></g><defs><clipPath id="a"><path fill="#fff" d="M0 0h44v44H0z"/></clipPath><filter id="b" width="58.25" height="45.6" x="-7.4" y="-2.45" color-interpolation-filters="sRGB" filterUnits="userSpaceOnUse"><feFlood flood-opacity="0" result="BackgroundImageFix"/><feBlend in="SourceGraphic" in2="BackgroundImageFix" result="shape"/><feGaussianBlur result="effect1_foregroundBlur_12345_51720" stdDeviation="7"/></filter></defs></svg>