<svg xmlns="http://www.w3.org/2000/svg" width="150" height="150" fill="none" opt="1"><g filter="url(#a)"><path fill="#71D9FF" fill-rule="evenodd" d="M81.076 39.375H66.542a.72.72 0 0 0-.721.726v4.842c0 .402.322.726.72.726h14.535c.399 0 .72-.324.72-.726v-4.842a.724.724 0 0 0-.72-.726m-41.308 17.81L28.962 40.05a1.44 1.44 0 0 0-1.215-.673h-4.522a.723.723 0 0 0-.72.727V75.66c0 .402.321.726.72.726h4.803c.399 0 .72-.324.72-.726V52.276c0-.242.315-.334.443-.13l10.168 16.127a.717.717 0 0 0 1.215 0l10.167-16.128c.13-.203.442-.111.442.131v23.381c0 .402.322.727.72.727h4.804c.398 0 .72-.325.72-.727V40.104a.72.72 0 0 0-.72-.727h-4.52c-.493 0-.951.255-1.216.673l-10.8 17.136a.237.237 0 0 1-.403 0m46.95 3.843H72.305a.24.24 0 0 0-.24.242v8.58c0 .133.108.242.24.242H92.36c.4 0 .72.324.72.726v4.842a.72.72 0 0 1-.72.726H66.542a.72.72 0 0 1-.721-.726v-20.2c0-.402.322-.727.72-.727h20.177c.399 0 .72.325.72.727v4.842a.72.72 0 0 1-.72.726m31.325-20.709-9.753 26.287a.239.239 0 0 1-.449 0l-9.75-26.287a1.445 1.445 0 0 0-1.35-.944h-5.515a.726.726 0 0 0-.675.98l13.193 35.56a.72.72 0 0 0 .675.471h7.298c.3 0 .569-.189.675-.472l13.19-35.558a.726.726 0 0 0-.675-.981h-5.512c-.603 0-1.14.375-1.352.944M27.527 89.091q-2.206 0-3.615 1.452c-.939.966-1.41 2.198-1.412 3.687q0 2.24 1.41 3.692 1.405 1.453 3.614 1.453 2.634 0 4.028-2.022L29.96 96.12q-.396.54-1.04.903a2.8 2.8 0 0 1-1.393.363q-1.364.002-2.207-.886t-.843-2.264q0-1.372.843-2.26.842-.89 2.207-.89a2.97 2.97 0 0 1 2.435 1.218l1.592-1.188q-1.392-2.024-4.027-2.024m10.785 10.16 4.045-10.037h1.503l4.028 10.037H45.79l-.644-1.653h-4.09l-.643 1.653zm6.13-3.474-1.333-3.41-1.333 3.41zm10.646-6.563v10.037h1.977v-3.428h2.666q1.21 0 2.123-.888.909-.89.91-2.419 0-1.528-.91-2.416-.912-.886-2.123-.886zm4.29 4.663h-2.315v-2.731h2.343q.567 0 .973.377.405.378.406.996 0 .602-.413.98a1.42 1.42 0 0 1-.994.378M70.27 99.25V89.214h1.977v10.037zm17.434-10.037h-7.954v1.823h2.988v8.214h1.993v-8.214h2.973zm5.776 10.037 4.045-10.037h1.503l4.028 10.037h-2.099l-.644-1.653h-4.09l-.644 1.653zm6.13-3.474-1.333-3.41-1.333 3.41zm10.644-6.563v10.037h6.71v-1.823h-4.734v-8.214z" clip-rule="evenodd"/></g><path fill="#162125" fill-rule="evenodd" d="M81.076 45H66.542a.72.72 0 0 0-.721.726v4.842c0 .402.322.726.72.726h14.535c.399 0 .72-.324.72-.726v-4.842a.724.724 0 0 0-.72-.726M39.768 62.81 28.962 45.676a1.44 1.44 0 0 0-1.215-.673h-4.522a.723.723 0 0 0-.72.727v35.556c0 .402.321.726.72.726h4.803c.399 0 .72-.324.72-.726V57.9c0-.242.315-.334.443-.13l10.168 16.127a.717.717 0 0 0 1.215 0L50.742 57.77c.13-.203.442-.111.442.131v23.381c0 .402.322.727.72.727h4.804c.398 0 .72-.325.72-.727V45.73a.72.72 0 0 0-.72-.727h-4.52c-.493 0-.951.255-1.216.673l-10.8 17.136a.237.237 0 0 1-.403 0m46.95 3.843H72.305a.24.24 0 0 0-.24.242v8.58c0 .133.108.242.24.242H92.36c.4 0 .72.324.72.726v4.842a.72.72 0 0 1-.72.726H66.542a.72.72 0 0 1-.721-.726v-20.2c0-.402.322-.727.72-.727h20.177c.399 0 .72.325.72.727v4.842a.72.72 0 0 1-.72.726m31.325-20.709-9.753 26.287a.239.239 0 0 1-.449 0l-9.75-26.287A1.445 1.445 0 0 0 96.74 45h-5.515a.726.726 0 0 0-.675.98l13.193 35.56a.72.72 0 0 0 .675.471h7.298c.3 0 .569-.189.675-.472l13.19-35.558a.726.726 0 0 0-.675-.981h-5.512c-.603 0-1.14.375-1.352.944M27.527 94.716q-2.206 0-3.615 1.452c-.939.966-1.41 2.198-1.412 3.687q0 2.24 1.41 3.692Q25.315 105 27.524 105q2.634 0 4.028-2.022l-1.592-1.234a3.2 3.2 0 0 1-1.04.903 2.8 2.8 0 0 1-1.393.363q-1.364.002-2.207-.886t-.843-2.264q0-1.372.843-2.26.842-.89 2.207-.89a2.97 2.97 0 0 1 2.435 1.218l1.592-1.188q-1.392-2.024-4.027-2.024m10.785 10.16 4.045-10.037h1.503l4.028 10.037H45.79l-.644-1.653h-4.09l-.643 1.653zm6.13-3.474-1.333-3.41-1.333 3.41zm10.646-6.563v10.037h1.977v-3.428h2.666q1.21 0 2.123-.888.909-.89.91-2.419 0-1.528-.91-2.416-.912-.886-2.123-.886zm4.29 4.663h-2.315V96.77h2.343q.567 0 .973.377.405.378.406.996 0 .602-.413.98a1.42 1.42 0 0 1-.994.378m10.893 5.374V94.839h1.977v10.037zm17.434-10.037h-7.954v1.823h2.988v8.214h1.993v-8.214h2.973zm5.776 10.037 4.045-10.037h1.503l4.028 10.037h-2.099l-.644-1.653h-4.09l-.644 1.653zm6.13-3.474-1.333-3.41-1.333 3.41zm10.644-6.563v10.037h6.71v-1.823h-4.734v-8.214z" clip-rule="evenodd"/><defs><filter id="a" width="131.129" height="88" x="8.5" y="25.375" color-interpolation-filters="sRGB" filterUnits="userSpaceOnUse"><feFlood flood-opacity="0" result="BackgroundImageFix"/><feBlend in="SourceGraphic" in2="BackgroundImageFix" result="shape"/><feGaussianBlur result="effect1_foregroundBlur_11440_73203" stdDeviation="7"/></filter></defs></svg>