<svg xmlns="http://www.w3.org/2000/svg" width="150" height="150" fill="none" opt="1"><g clip-path="url(#a)"><g filter="url(#b)"><path fill="#fff" fill-opacity=".45" d="M26.775 40.153c-3.192 1.83-3.21 4.793-.037 6.62l42.997 24.783c3.171 1.83 8.331 1.83 11.523 0l43.279-24.783c3.192-1.829 3.21-4.793.038-6.62L81.577 15.372c-3.171-1.83-8.332-1.83-11.524 0L26.775 40.153Z"/><path fill="url(#c)" d="M26.775 40.153c-3.192 1.83-3.21 4.793-.037 6.62l42.997 24.783c3.171 1.83 8.331 1.83 11.523 0l43.279-24.783c3.192-1.829 3.21-4.793.038-6.62L81.577 15.372c-3.171-1.83-8.332-1.83-11.524 0L26.775 40.153Z"/></g><g filter="url(#d)"><path fill="#fff" fill-opacity=".45" d="M126.997 68.946a1.92 1.92 0 0 1-.021.189 1.46 1.46 0 0 1-.041.153c-.016.062-.029.12-.051.181-.032.088-.07.178-.113.266l-.024.045a2.694 2.694 0 0 1-.172.278l-.03.04a2.862 2.862 0 0 1-.201.247c-.014.016-.027.032-.041.045a3.306 3.306 0 0 1-.446.403c-.056.046-.11.09-.169.133-.07.05-.146.096-.221.144-.078.05-.151.1-.231.146L80.104 97.1a5.445 5.445 0 0 1-.411.212c-.038.019-.075.035-.113.053a6.308 6.308 0 0 1-.39.165c-.016.008-.035.013-.051.021-.143.053-.29.101-.439.149a6 6 0 0 1-.314.087c-.08.022-.159.045-.24.064-.11.027-.223.048-.336.072a10.077 10.077 0 0 1-.922.14c-.073.008-.145.014-.218.019-.137.01-.274.021-.412.026l-.266.009c-.11 0-.223.002-.333 0-.095 0-.186-.006-.28-.008-.102-.006-.207-.008-.31-.016a10.797 10.797 0 0 1-1.436-.202 8.64 8.64 0 0 1-.376-.09c-.08-.022-.164-.043-.245-.064l-.129-.04c-.126-.04-.25-.082-.371-.125l-.105-.037c-.11-.042-.218-.09-.325-.138-.051-.024-.105-.042-.156-.066a6.477 6.477 0 0 1-.45-.231L26.05 71.216c-1.202-.685-1.804-1.585-1.802-2.482L24 105.796c0 .898.597 1.797 1.802 2.482l45.427 25.885c.145.083.293.16.447.231.05.024.105.046.158.069.092.04.18.083.275.12.016.005.032.01.048.018.035.014.07.024.105.038a6.899 6.899 0 0 0 .5.164c.03.008.057.019.086.027l.156.037c.127.032.25.064.38.093.034.008.067.018.102.024.048.01.102.016.15.026.108.021.215.04.323.056.043.008.086.016.132.021l.142.016c.102.013.202.024.304.035.049.005.097.013.145.016l.135.007c.102.008.204.014.31.016.05 0 .104.008.155.008h.624c.032 0 .065-.005.097-.005.137-.005.274-.016.411-.026.057-.006.11-.006.167-.011.016 0 .032-.005.051-.008a9.868 9.868 0 0 0 .73-.101c.066-.011.13-.029.195-.042.113-.022.226-.046.337-.072.08-.019.161-.043.239-.064.105-.029.21-.056.315-.087.021-.008.045-.011.067-.019.126-.04.25-.082.371-.13.019-.008.035-.013.051-.021a5.682 5.682 0 0 0 .503-.218c.14-.066.28-.138.412-.212l45.131-25.885.075-.043c.057-.034.105-.069.159-.103.075-.048.151-.096.22-.144a2.27 2.27 0 0 0 .17-.133c.064-.05.129-.1.188-.153.011-.011.027-.022.038-.032a3.735 3.735 0 0 0 .258-.263c.04-.045.083-.09.118-.138.03-.037.054-.074.081-.109a2.63 2.63 0 0 0 .164-.249c.014-.024.024-.048.038-.07l.024-.045c.038-.074.073-.151.102-.228.005-.013.005-.024.011-.037.021-.058.035-.119.051-.181.011-.039.027-.079.035-.122 0-.01 0-.021.003-.032.01-.063.016-.127.021-.188.003-.04.014-.082.014-.122v-.053L127 68.776c0 .059-.011.117-.016.178l.013-.008Z"/><path fill="url(#e)" d="M126.997 68.946a1.92 1.92 0 0 1-.021.189 1.46 1.46 0 0 1-.041.153c-.016.062-.029.12-.051.181-.032.088-.07.178-.113.266l-.024.045a2.694 2.694 0 0 1-.172.278l-.03.04a2.862 2.862 0 0 1-.201.247c-.014.016-.027.032-.041.045a3.306 3.306 0 0 1-.446.403c-.056.046-.11.09-.169.133-.07.05-.146.096-.221.144-.078.05-.151.1-.231.146L80.104 97.1a5.445 5.445 0 0 1-.411.212c-.038.019-.075.035-.113.053a6.308 6.308 0 0 1-.39.165c-.016.008-.035.013-.051.021-.143.053-.29.101-.439.149a6 6 0 0 1-.314.087c-.08.022-.159.045-.24.064-.11.027-.223.048-.336.072a10.077 10.077 0 0 1-.922.14c-.073.008-.145.014-.218.019-.137.01-.274.021-.412.026l-.266.009c-.11 0-.223.002-.333 0-.095 0-.186-.006-.28-.008-.102-.006-.207-.008-.31-.016a10.797 10.797 0 0 1-1.436-.202 8.64 8.64 0 0 1-.376-.09c-.08-.022-.164-.043-.245-.064l-.129-.04c-.126-.04-.25-.082-.371-.125l-.105-.037c-.11-.042-.218-.09-.325-.138-.051-.024-.105-.042-.156-.066a6.477 6.477 0 0 1-.45-.231L26.05 71.216c-1.202-.685-1.804-1.585-1.802-2.482L24 105.796c0 .898.597 1.797 1.802 2.482l45.427 25.885c.145.083.293.16.447.231.05.024.105.046.158.069.092.04.18.083.275.12.016.005.032.01.048.018.035.014.07.024.105.038a6.899 6.899 0 0 0 .5.164c.03.008.057.019.086.027l.156.037c.127.032.25.064.38.093.034.008.067.018.102.024.048.01.102.016.15.026.108.021.215.04.323.056.043.008.086.016.132.021l.142.016c.102.013.202.024.304.035.049.005.097.013.145.016l.135.007c.102.008.204.014.31.016.05 0 .104.008.155.008h.624c.032 0 .065-.005.097-.005.137-.005.274-.016.411-.026.057-.006.11-.006.167-.011.016 0 .032-.005.051-.008a9.868 9.868 0 0 0 .73-.101c.066-.011.13-.029.195-.042.113-.022.226-.046.337-.072.08-.019.161-.043.239-.064.105-.029.21-.056.315-.087.021-.008.045-.011.067-.019.126-.04.25-.082.371-.13.019-.008.035-.013.051-.021a5.682 5.682 0 0 0 .503-.218c.14-.066.28-.138.412-.212l45.131-25.885.075-.043c.057-.034.105-.069.159-.103.075-.048.151-.096.22-.144a2.27 2.27 0 0 0 .17-.133c.064-.05.129-.1.188-.153.011-.011.027-.022.038-.032a3.735 3.735 0 0 0 .258-.263c.04-.045.083-.09.118-.138.03-.037.054-.074.081-.109a2.63 2.63 0 0 0 .164-.249c.014-.024.024-.048.038-.07l.024-.045c.038-.074.073-.151.102-.228.005-.013.005-.024.011-.037.021-.058.035-.119.051-.181.011-.039.027-.079.035-.122 0-.01 0-.021.003-.032.01-.063.016-.127.021-.188.003-.04.014-.082.014-.122v-.053L127 68.776c0 .059-.011.117-.016.178l.013-.008Z"/></g><path fill="#fff" fill-opacity=".45" d="M26.775 40.56c-3.192 1.83-3.21 4.793-.037 6.62l42.997 24.783c3.171 1.83 8.331 1.83 11.523 0l43.279-24.782c3.192-1.83 3.21-4.793.038-6.62L81.577 15.778c-3.171-1.829-8.332-1.829-11.524 0L26.775 40.56Z"/><path fill="url(#f)" d="M26.775 40.56c-3.192 1.83-3.21 4.793-.037 6.62l42.997 24.783c3.171 1.83 8.331 1.83 11.523 0l43.279-24.782c3.192-1.83 3.21-4.793.038-6.62L81.577 15.778c-3.171-1.829-8.332-1.829-11.524 0L26.775 40.56Z"/><path fill="#fff" fill-opacity=".45" d="M126.997 69.353c-.005.064-.01.128-.021.189-.011.05-.024.103-.041.154-.016.06-.029.12-.051.18-.032.088-.07.178-.113.266l-.024.045a2.684 2.684 0 0 1-.172.279l-.03.04a2.832 2.832 0 0 1-.201.246c-.014.016-.027.032-.041.045a3.27 3.27 0 0 1-.446.404c-.056.045-.11.09-.169.133-.07.05-.146.095-.221.143-.078.05-.151.1-.231.146L80.104 97.508a5.407 5.407 0 0 1-.411.213c-.038.018-.075.034-.113.053a6.309 6.309 0 0 1-.39.164c-.016.008-.035.013-.051.021-.143.053-.29.101-.439.15-.102.03-.21.06-.314.087-.08.02-.159.045-.24.063-.11.027-.223.048-.336.072-.078.016-.153.032-.231.045a10.077 10.077 0 0 1-.91.114c-.136.01-.273.022-.41.027l-.267.008c-.11 0-.223.002-.333 0-.095 0-.186-.006-.28-.008-.102-.005-.207-.008-.31-.016a5.07 5.07 0 0 1-.282-.024c-.102-.01-.204-.021-.304-.035a6.85 6.85 0 0 1-.597-.093 8.64 8.64 0 0 1-.63-.14l-.244-.064a12.31 12.31 0 0 1-.5-.165c-.035-.013-.07-.023-.105-.037a7.023 7.023 0 0 1-.325-.138c-.051-.023-.105-.042-.156-.066a6.432 6.432 0 0 1-.45-.23L26.05 71.622c-1.202-.685-1.804-1.585-1.802-2.482L24 106.204c0 .897.597 1.797 1.802 2.482l45.427 25.885c.145.082.293.159.447.231.05.024.105.045.158.069.092.04.18.082.275.119a.319.319 0 0 1 .048.019l.105.037a7.915 7.915 0 0 0 .5.165c.03.007.057.018.086.026l.156.037c.127.032.25.064.38.093.034.008.067.019.102.024.048.011.102.016.15.027.108.021.215.039.323.055.043.008.086.016.132.022l.142.015c.102.014.202.024.304.035.049.005.097.013.145.016l.135.008c.102.008.204.013.31.016.05 0 .104.008.155.008h.624c.032 0 .065-.006.097-.006.137-.005.274-.015.411-.026.057-.005.11-.005.167-.011.016 0 .032-.005.051-.008a9.867 9.867 0 0 0 .73-.101c.066-.01.13-.029.195-.042.113-.021.226-.045.337-.072.08-.018.161-.042.239-.063.105-.03.21-.056.315-.088.021-.008.045-.011.067-.019.126-.039.25-.082.371-.13.019-.008.035-.013.051-.021a5.676 5.676 0 0 0 .503-.218c.14-.066.28-.138.412-.212l45.131-25.885.075-.043c.057-.034.105-.069.159-.103.075-.048.151-.096.22-.143.06-.043.116-.088.17-.133.064-.051.129-.101.188-.154.011-.011.027-.021.038-.032a3.448 3.448 0 0 0 .258-.263c.04-.045.083-.09.118-.138.03-.037.054-.074.081-.109a2.476 2.476 0 0 0 .164-.249c.014-.024.024-.048.038-.069l.024-.045a2.32 2.32 0 0 0 .102-.229c.005-.013.005-.023.011-.037.021-.058.035-.119.051-.18.011-.04.027-.08.035-.122 0-.011 0-.022.003-.032a2.6 2.6 0 0 0 .021-.189c.003-.039.014-.082.014-.122v-.053L127 69.184c0 .058-.011.116-.016.177l.013-.008Z"/><path fill="url(#g)" d="M126.997 69.353c-.005.064-.01.128-.021.189-.011.05-.024.103-.041.154-.016.06-.029.12-.051.18-.032.088-.07.178-.113.266l-.024.045a2.684 2.684 0 0 1-.172.279l-.03.04a2.832 2.832 0 0 1-.201.246c-.014.016-.027.032-.041.045a3.27 3.27 0 0 1-.446.404c-.056.045-.11.09-.169.133-.07.05-.146.095-.221.143-.078.05-.151.1-.231.146L80.104 97.508a5.407 5.407 0 0 1-.411.213c-.038.018-.075.034-.113.053a6.309 6.309 0 0 1-.39.164c-.016.008-.035.013-.051.021-.143.053-.29.101-.439.15-.102.03-.21.06-.314.087-.08.02-.159.045-.24.063-.11.027-.223.048-.336.072-.078.016-.153.032-.231.045a10.077 10.077 0 0 1-.91.114c-.136.01-.273.022-.41.027l-.267.008c-.11 0-.223.002-.333 0-.095 0-.186-.006-.28-.008-.102-.005-.207-.008-.31-.016a5.07 5.07 0 0 1-.282-.024c-.102-.01-.204-.021-.304-.035a6.85 6.85 0 0 1-.597-.093 8.64 8.64 0 0 1-.63-.14l-.244-.064a12.31 12.31 0 0 1-.5-.165c-.035-.013-.07-.023-.105-.037a7.023 7.023 0 0 1-.325-.138c-.051-.023-.105-.042-.156-.066a6.432 6.432 0 0 1-.45-.23L26.05 71.622c-1.202-.685-1.804-1.585-1.802-2.482L24 106.204c0 .897.597 1.797 1.802 2.482l45.427 25.885c.145.082.293.159.447.231.05.024.105.045.158.069.092.04.18.082.275.119a.319.319 0 0 1 .048.019l.105.037a7.915 7.915 0 0 0 .5.165c.03.007.057.018.086.026l.156.037c.127.032.25.064.38.093.034.008.067.019.102.024.048.011.102.016.15.027.108.021.215.039.323.055.043.008.086.016.132.022l.142.015c.102.014.202.024.304.035.049.005.097.013.145.016l.135.008c.102.008.204.013.31.016.05 0 .104.008.155.008h.624c.032 0 .065-.006.097-.006.137-.005.274-.015.411-.026.057-.005.11-.005.167-.011.016 0 .032-.005.051-.008a9.867 9.867 0 0 0 .73-.101c.066-.01.13-.029.195-.042.113-.021.226-.045.337-.072.08-.018.161-.042.239-.063.105-.03.21-.056.315-.088.021-.008.045-.011.067-.019.126-.039.25-.082.371-.13.019-.008.035-.013.051-.021a5.676 5.676 0 0 0 .503-.218c.14-.066.28-.138.412-.212l45.131-25.885.075-.043c.057-.034.105-.069.159-.103.075-.048.151-.096.22-.143.06-.043.116-.088.17-.133.064-.051.129-.101.188-.154.011-.011.027-.021.038-.032a3.448 3.448 0 0 0 .258-.263c.04-.045.083-.09.118-.138.03-.037.054-.074.081-.109a2.476 2.476 0 0 0 .164-.249c.014-.024.024-.048.038-.069l.024-.045a2.32 2.32 0 0 0 .102-.229c.005-.013.005-.023.011-.037.021-.058.035-.119.051-.18.011-.04.027-.08.035-.122 0-.011 0-.022.003-.032a2.6 2.6 0 0 0 .021-.189c.003-.039.014-.082.014-.122v-.053L127 69.184c0 .058-.011.116-.016.177l.013-.008Z"/><path fill="#fff" fill-opacity=".45" d="M26.775 72.382c-3.192-1.83-3.21-4.793-.037-6.62l42.997-24.783c3.171-1.83 8.331-1.83 11.523 0l43.279 24.783c3.192 1.829 3.21 4.793.038 6.62L81.577 97.163c-3.171 1.83-8.332 1.83-11.524 0L26.775 72.382Z"/><path fill="url(#h)" fill-opacity=".5" d="M26.775 72.382c-3.192-1.83-3.21-4.793-.037-6.62l42.997-24.783c3.171-1.83 8.331-1.83 11.523 0l43.279 24.783c3.192 1.829 3.21 4.793.038 6.62L81.577 97.163c-3.171 1.83-8.332 1.83-11.524 0L26.775 72.382Z"/><path fill="url(#i)" fill-opacity=".7" d="M71.329 60.347c0 .027-.005.057-.007.084 0 .01 0 .023-.003.032a.817.817 0 0 1-.03.104.117.117 0 0 1-.012.025.441.441 0 0 1-.037.077c-.018.03-.037.057-.057.084-.005.005-.008.013-.013.017a1.04 1.04 0 0 1-.101.11c-.015.014-.032.027-.047.042a.768.768 0 0 1-.052.042c-.017.015-.04.027-.057.042-.02.012-.037.027-.06.04l-.044.024a1.818 1.818 0 0 1-.183.094 1.942 1.942 0 0 1-.194.075c-.007 0-.014.005-.022.007a2.35 2.35 0 0 1-.344.082 3.766 3.766 0 0 1-.26.032l-.104.007c-.032 0-.067 0-.102.003h-.087c-.057 0-.114 0-.17-.008l-11.013-.725a3.434 3.434 0 0 1-.282-.035c-.02-.002-.04-.007-.057-.01a4.123 4.123 0 0 1-.263-.06c-.01-.002-.017-.007-.027-.01a2.75 2.75 0 0 1-.262-.093 2.133 2.133 0 0 1-.213-.104c-.293-.169-.488-.39-.538-.634l-1.29-6.376a.59.59 0 0 1-.013-.131l-.14 54.876c0 .042.004.087.012.131l1.29 6.376c.05.245.245.468.538.634.066.037.138.072.212.104l.035.015c.01.002.017.007.027.012.065.025.132.047.201.067.01.003.017.008.027.01h.003c.064.017.131.035.2.05l.06.009c.02.003.037.008.057.01.022.005.047.01.07.013.059.007.12.015.182.02h.03l11.012.725.137.008h.22c.035 0 .07-.005.104-.008.02 0 .04 0 .06-.005l.024-.002c.06-.008.117-.015.174-.025a.12.12 0 0 0 .032-.005h.005c.109-.02.213-.047.31-.077.004 0 .01 0 .014-.005.003 0 .005 0 .008-.002.067-.022.13-.047.193-.074l.044-.023a2.137 2.137 0 0 0 .166-.086c.005-.003.01-.008.015-.01.02-.013.04-.028.06-.04.02-.012.04-.027.057-.04l.052-.042c.012-.01.027-.019.037-.032.005-.002.007-.007.01-.01a.984.984 0 0 0 .17-.21v-.003c.013-.025.025-.049.035-.072.005-.01.01-.017.013-.027a.744.744 0 0 0 .03-.099v-.002c0-.01 0-.023.004-.033.003-.022.008-.044.008-.066v-.015l.141-54.877.005-.007Z"/><path fill="url(#j)" d="M71.329 60.347c0 .027-.005.057-.007.084 0 .01 0 .023-.003.032a.817.817 0 0 1-.03.104.117.117 0 0 1-.012.025.441.441 0 0 1-.037.077c-.018.03-.037.057-.057.084-.005.005-.008.013-.013.017a1.04 1.04 0 0 1-.101.11c-.015.014-.032.027-.047.042a.768.768 0 0 1-.052.042c-.017.015-.04.027-.057.042-.02.012-.037.027-.06.04l-.044.024a1.818 1.818 0 0 1-.183.094 1.942 1.942 0 0 1-.194.075c-.007 0-.014.005-.022.007a2.35 2.35 0 0 1-.344.082 3.766 3.766 0 0 1-.26.032l-.104.007c-.032 0-.067 0-.102.003h-.087c-.057 0-.114 0-.17-.008l-11.013-.725a3.434 3.434 0 0 1-.282-.035c-.02-.002-.04-.007-.057-.01a4.123 4.123 0 0 1-.263-.06c-.01-.002-.017-.007-.027-.01a2.75 2.75 0 0 1-.262-.093 2.133 2.133 0 0 1-.213-.104c-.293-.169-.488-.39-.538-.634l-1.29-6.376a.59.59 0 0 1-.013-.131l-.14 54.876c0 .042.004.087.012.131l1.29 6.376c.05.245.245.468.538.634.066.037.138.072.212.104l.035.015c.01.002.017.007.027.012.065.025.132.047.201.067.01.003.017.008.027.01h.003c.064.017.131.035.2.05l.06.009c.02.003.037.008.057.01.022.005.047.01.07.013.059.007.12.015.182.02h.03l11.012.725.137.008h.22c.035 0 .07-.005.104-.008.02 0 .04 0 .06-.005l.024-.002c.06-.008.117-.015.174-.025a.12.12 0 0 0 .032-.005h.005c.109-.02.213-.047.31-.077.004 0 .01 0 .014-.005.003 0 .005 0 .008-.002.067-.022.13-.047.193-.074l.044-.023a2.137 2.137 0 0 0 .166-.086c.005-.003.01-.008.015-.01.02-.013.04-.028.06-.04.02-.012.04-.027.057-.04l.052-.042c.012-.01.027-.019.037-.032.005-.002.007-.007.01-.01a.984.984 0 0 0 .17-.21v-.003c.013-.025.025-.049.035-.072.005-.01.01-.017.013-.027a.744.744 0 0 0 .03-.099v-.002c0-.01 0-.023.004-.033.003-.022.008-.044.008-.066v-.015l.141-54.877.005-.007Z"/><path fill="url(#k)" d="M71.329 60.347c0 .027-.005.057-.007.084 0 .01 0 .023-.003.032a.817.817 0 0 1-.03.104.117.117 0 0 1-.012.025.441.441 0 0 1-.037.077c-.018.03-.037.057-.057.084-.005.005-.008.013-.013.017a1.04 1.04 0 0 1-.101.11c-.015.014-.032.027-.047.042a.768.768 0 0 1-.052.042c-.017.015-.04.027-.057.042-.02.012-.037.027-.06.04l-.044.024a1.818 1.818 0 0 1-.183.094 1.942 1.942 0 0 1-.194.075c-.007 0-.014.005-.022.007a2.35 2.35 0 0 1-.344.082 3.766 3.766 0 0 1-.26.032l-.104.007c-.032 0-.067 0-.102.003h-.087c-.057 0-.114 0-.17-.008l-11.013-.725a3.434 3.434 0 0 1-.282-.035c-.02-.002-.04-.007-.057-.01a4.123 4.123 0 0 1-.263-.06c-.01-.002-.017-.007-.027-.01a2.75 2.75 0 0 1-.262-.093 2.133 2.133 0 0 1-.213-.104c-.293-.169-.488-.39-.538-.634l-1.29-6.376a.59.59 0 0 1-.013-.131l-.14 54.876c0 .042.004.087.012.131l1.29 6.376c.05.245.245.468.538.634.066.037.138.072.212.104l.035.015c.01.002.017.007.027.012.065.025.132.047.201.067.01.003.017.008.027.01h.003c.064.017.131.035.2.05l.06.009c.02.003.037.008.057.01.022.005.047.01.07.013.059.007.12.015.182.02h.03l11.012.725.137.008h.22c.035 0 .07-.005.104-.008.02 0 .04 0 .06-.005l.024-.002c.06-.008.117-.015.174-.025a.12.12 0 0 0 .032-.005h.005c.109-.02.213-.047.31-.077.004 0 .01 0 .014-.005.003 0 .005 0 .008-.002.067-.022.13-.047.193-.074l.044-.023a2.137 2.137 0 0 0 .166-.086c.005-.003.01-.008.015-.01.02-.013.04-.028.06-.04.02-.012.04-.027.057-.04l.052-.042c.012-.01.027-.019.037-.032.005-.002.007-.007.01-.01a.984.984 0 0 0 .17-.21v-.003c.013-.025.025-.049.035-.072.005-.01.01-.017.013-.027a.744.744 0 0 0 .03-.099v-.002c0-.01 0-.023.004-.033.003-.022.008-.044.008-.066v-.015l.141-54.877.005-.007Z"/><path fill="url(#l)" fill-opacity=".7" d="M88.479 61.595s0 .023-.005.032a.812.812 0 0 1-.03.104c-.002.008-.007.015-.012.025-.013.027-.023.052-.038.08a.92.92 0 0 1-.059.089l-.007.012a1.03 1.03 0 0 1-.102.109c-.015.015-.032.027-.05.042a.794.794 0 0 1-.108.082c-.02.012-.04.027-.06.04-.015.007-.03.017-.044.024-.045.025-.09.05-.137.072l-.044.022a2.204 2.204 0 0 1-.191.075c-.007 0-.015.005-.022.007a2.35 2.35 0 0 1-.518.107 8.306 8.306 0 0 1-.19.014c-.033 0-.067 0-.102.003h-.087c-.057 0-.114-.002-.17-.008l-11.013-.725a3.589 3.589 0 0 1-.285-.035c-.02-.002-.04-.007-.057-.01a3.765 3.765 0 0 1-.262-.06c-.005 0-.013-.004-.018-.004a3.365 3.365 0 0 1-.237-.082l-.035-.015a2.142 2.142 0 0 1-.213-.104c-.29-.168-.486-.389-.535-.634l-1.293-6.375a.48.48 0 0 1-.012-.132l-.142 54.877c0 .042.005.086.013.131l1.293 6.375c.05.246.242.468.535.634.067.038.138.072.213.104l.034.015c.01.003.018.008.025.013.067.027.139.049.21.072.008 0 .013.005.018.005.064.017.131.034.198.049.02.005.042.007.062.01.02.002.037.007.057.01.022.005.045.007.067.012a3.495 3.495 0 0 0 .215.023l11.013.725.14.008h.216c.035 0 .07-.005.104-.008.02 0 .042 0 .062-.005l.025-.002c.06-.008.119-.015.176-.025.01 0 .02 0 .027-.005h.005c.109-.02.213-.047.31-.077.005 0 .01 0 .014-.005.003 0 .005 0 .008-.002.067-.022.131-.047.19-.074l.045-.023a1.601 1.601 0 0 0 .164-.086c.005-.003.01-.008.015-.01.02-.013.04-.025.059-.04.02-.012.04-.027.057-.04l.052-.042c.012-.01.027-.019.037-.032.005-.002.008-.007.01-.01a.992.992 0 0 0 .102-.109l.007-.012c.022-.03.042-.06.06-.089v-.003a.412.412 0 0 0 .034-.077l.013-.024a.716.716 0 0 0 .03-.102v-.002c0-.01 0-.023.004-.033.003-.022.008-.044.008-.066v-.015l.14-54.877c0 .028-.004.055-.007.082l.018-.005Z"/><path fill="url(#m)" d="M88.479 61.595s0 .023-.005.032a.812.812 0 0 1-.03.104c-.002.008-.007.015-.012.025-.013.027-.023.052-.038.08a.92.92 0 0 1-.059.089l-.007.012a1.03 1.03 0 0 1-.102.109c-.015.015-.032.027-.05.042a.794.794 0 0 1-.108.082c-.02.012-.04.027-.06.04-.015.007-.03.017-.044.024-.045.025-.09.05-.137.072l-.044.022a2.204 2.204 0 0 1-.191.075c-.007 0-.015.005-.022.007a2.35 2.35 0 0 1-.518.107 8.306 8.306 0 0 1-.19.014c-.033 0-.067 0-.102.003h-.087c-.057 0-.114-.002-.17-.008l-11.013-.725a3.589 3.589 0 0 1-.285-.035c-.02-.002-.04-.007-.057-.01a3.765 3.765 0 0 1-.262-.06c-.005 0-.013-.004-.018-.004a3.365 3.365 0 0 1-.237-.082l-.035-.015a2.142 2.142 0 0 1-.213-.104c-.29-.168-.486-.389-.535-.634l-1.293-6.375a.48.48 0 0 1-.012-.132l-.142 54.877c0 .042.005.086.013.131l1.293 6.375c.05.246.242.468.535.634.067.038.138.072.213.104l.034.015c.01.003.018.008.025.013.067.027.139.049.21.072.008 0 .013.005.018.005.064.017.131.034.198.049.02.005.042.007.062.01.02.002.037.007.057.01.022.005.045.007.067.012a3.495 3.495 0 0 0 .215.023l11.013.725.14.008h.216c.035 0 .07-.005.104-.008.02 0 .042 0 .062-.005l.025-.002c.06-.008.119-.015.176-.025.01 0 .02 0 .027-.005h.005c.109-.02.213-.047.31-.077.005 0 .01 0 .014-.005.003 0 .005 0 .008-.002.067-.022.131-.047.19-.074l.045-.023a1.601 1.601 0 0 0 .164-.086c.005-.003.01-.008.015-.01.02-.013.04-.025.059-.04.02-.012.04-.027.057-.04l.052-.042c.012-.01.027-.019.037-.032.005-.002.008-.007.01-.01a.992.992 0 0 0 .102-.109l.007-.012c.022-.03.042-.06.06-.089v-.003a.412.412 0 0 0 .034-.077l.013-.024a.716.716 0 0 0 .03-.102v-.002c0-.01 0-.023.004-.033.003-.022.008-.044.008-.066v-.015l.14-54.877c0 .028-.004.055-.007.082l.018-.005Z"/><path fill="url(#n)" d="M88.479 61.595s0 .023-.005.032a.812.812 0 0 1-.03.104c-.002.008-.007.015-.012.025-.013.027-.023.052-.038.08a.92.92 0 0 1-.059.089l-.007.012a1.03 1.03 0 0 1-.102.109c-.015.015-.032.027-.05.042a.794.794 0 0 1-.108.082c-.02.012-.04.027-.06.04-.015.007-.03.017-.044.024-.045.025-.09.05-.137.072l-.044.022a2.204 2.204 0 0 1-.191.075c-.007 0-.015.005-.022.007a2.35 2.35 0 0 1-.518.107 8.306 8.306 0 0 1-.19.014c-.033 0-.067 0-.102.003h-.087c-.057 0-.114-.002-.17-.008l-11.013-.725a3.589 3.589 0 0 1-.285-.035c-.02-.002-.04-.007-.057-.01a3.765 3.765 0 0 1-.262-.06c-.005 0-.013-.004-.018-.004a3.365 3.365 0 0 1-.237-.082l-.035-.015a2.142 2.142 0 0 1-.213-.104c-.29-.168-.486-.389-.535-.634l-1.293-6.375a.48.48 0 0 1-.012-.132l-.142 54.877c0 .042.005.086.013.131l1.293 6.375c.05.246.242.468.535.634.067.038.138.072.213.104l.034.015c.01.003.018.008.025.013.067.027.139.049.21.072.008 0 .013.005.018.005.064.017.131.034.198.049.02.005.042.007.062.01.02.002.037.007.057.01.022.005.045.007.067.012a3.495 3.495 0 0 0 .215.023l11.013.725.14.008h.216c.035 0 .07-.005.104-.008.02 0 .042 0 .062-.005l.025-.002c.06-.008.119-.015.176-.025.01 0 .02 0 .027-.005h.005c.109-.02.213-.047.31-.077.005 0 .01 0 .014-.005.003 0 .005 0 .008-.002.067-.022.131-.047.19-.074l.045-.023a1.601 1.601 0 0 0 .164-.086c.005-.003.01-.008.015-.01.02-.013.04-.025.059-.04.02-.012.04-.027.057-.04l.052-.042c.012-.01.027-.019.037-.032.005-.002.008-.007.01-.01a.992.992 0 0 0 .102-.109l.007-.012c.022-.03.042-.06.06-.089v-.003a.412.412 0 0 0 .034-.077l.013-.024a.716.716 0 0 0 .03-.102v-.002c0-.01 0-.023.004-.033.003-.022.008-.044.008-.066v-.015l.14-54.877c0 .028-.004.055-.007.082l.018-.005Z"/><path fill="url(#o)" fill-opacity=".7" d="M73.376 70.374s0 .022-.002.032a.813.813 0 0 1-.03.104c-.002.01-.01.017-.012.027-.01.025-.023.05-.035.075-.017.03-.037.056-.057.086-.005.005-.007.01-.012.018a1.04 1.04 0 0 1-.102.109c-.015.014-.032.027-.047.042a.739.739 0 0 1-.052.042c-.017.015-.04.027-.057.042-.02.012-.037.027-.06.04a1.819 1.819 0 0 1-.225.119 1.976 1.976 0 0 1-.193.074c-.008 0-.015.005-.022.007a2.392 2.392 0 0 1-.52.107 7.865 7.865 0 0 1-.087.007l-.104.007c-.032 0-.067 0-.102.003h-.089c-.057 0-.114 0-.17-.007l-11.013-.726a3.35 3.35 0 0 1-.282-.035c-.02-.002-.04-.007-.057-.01a4.108 4.108 0 0 1-.288-.067 3.115 3.115 0 0 1-.23-.079l-.035-.015a2.142 2.142 0 0 1-.213-.104c-.29-.168-.485-.389-.535-.634l-1.293-6.375a.59.59 0 0 1-.012-.132l-.141 54.877c0 .042.005.086.012.131l1.293 6.375c.05.246.245.466.535.634.067.038.139.072.213.104l.035.015c.01.003.017.008.027.013.064.024.134.047.203.069l.025.007h.002c.065.018.132.035.201.05.02.005.04.007.06.01.02.002.037.007.056.01a3.495 3.495 0 0 0 .253.032h.03l11.012.726.139.007h.223c.034 0 .069-.005.104-.007.02 0 .04 0 .06-.005l.024-.003c.06-.007.119-.015.176-.024.01 0 .02 0 .027-.005h.002c.11-.02.214-.047.313-.077.005 0 .01 0 .014-.003.003 0 .005 0 .008-.002a2.21 2.21 0 0 0 .193-.074l.045-.023a2.135 2.135 0 0 0 .166-.086l.014-.01c.02-.013.04-.025.06-.04a.428.428 0 0 0 .057-.042l.052-.042c.012-.01.027-.02.04-.032a1.092 1.092 0 0 0 .111-.119c.005-.005.007-.013.012-.018.02-.027.04-.057.057-.084v-.002c.015-.025.025-.05.035-.075a.11.11 0 0 1 .012-.024.809.809 0 0 0 .03-.099v-.003c0-.01 0-.022.003-.032.002-.022.007-.045.007-.067v-.015l.141-54.876c0 .027-.005.057-.007.084l.002-.012Z"/><path fill="url(#p)" d="M73.376 70.374s0 .022-.002.032a.813.813 0 0 1-.03.104c-.002.01-.01.017-.012.027-.01.025-.023.05-.035.075-.017.03-.037.056-.057.086-.005.005-.007.01-.012.018a1.04 1.04 0 0 1-.102.109c-.015.014-.032.027-.047.042a.739.739 0 0 1-.052.042c-.017.015-.04.027-.057.042-.02.012-.037.027-.06.04a1.819 1.819 0 0 1-.225.119 1.976 1.976 0 0 1-.193.074c-.008 0-.015.005-.022.007a2.392 2.392 0 0 1-.52.107 7.865 7.865 0 0 1-.087.007l-.104.007c-.032 0-.067 0-.102.003h-.089c-.057 0-.114 0-.17-.007l-11.013-.726a3.35 3.35 0 0 1-.282-.035c-.02-.002-.04-.007-.057-.01a4.108 4.108 0 0 1-.288-.067 3.115 3.115 0 0 1-.23-.079l-.035-.015a2.142 2.142 0 0 1-.213-.104c-.29-.168-.485-.389-.535-.634l-1.293-6.375a.59.59 0 0 1-.012-.132l-.141 54.877c0 .042.005.086.012.131l1.293 6.375c.05.246.245.466.535.634.067.038.139.072.213.104l.035.015c.01.003.017.008.027.013.064.024.134.047.203.069l.025.007h.002c.065.018.132.035.201.05.02.005.04.007.06.01.02.002.037.007.056.01a3.495 3.495 0 0 0 .253.032h.03l11.012.726.139.007h.223c.034 0 .069-.005.104-.007.02 0 .04 0 .06-.005l.024-.003c.06-.007.119-.015.176-.024.01 0 .02 0 .027-.005h.002c.11-.02.214-.047.313-.077.005 0 .01 0 .014-.003.003 0 .005 0 .008-.002a2.21 2.21 0 0 0 .193-.074l.045-.023a2.135 2.135 0 0 0 .166-.086l.014-.01c.02-.013.04-.025.06-.04a.428.428 0 0 0 .057-.042l.052-.042c.012-.01.027-.02.04-.032a1.092 1.092 0 0 0 .111-.119c.005-.005.007-.013.012-.018.02-.027.04-.057.057-.084v-.002c.015-.025.025-.05.035-.075a.11.11 0 0 1 .012-.024.809.809 0 0 0 .03-.099v-.003c0-.01 0-.022.003-.032.002-.022.007-.045.007-.067v-.015l.141-54.876c0 .027-.005.057-.007.084l.002-.012Z"/><path fill="url(#q)" d="M73.376 70.374s0 .022-.002.032a.813.813 0 0 1-.03.104c-.002.01-.01.017-.012.027-.01.025-.023.05-.035.075-.017.03-.037.056-.057.086-.005.005-.007.01-.012.018a1.04 1.04 0 0 1-.102.109c-.015.014-.032.027-.047.042a.739.739 0 0 1-.052.042c-.017.015-.04.027-.057.042-.02.012-.037.027-.06.04a1.819 1.819 0 0 1-.225.119 1.976 1.976 0 0 1-.193.074c-.008 0-.015.005-.022.007a2.392 2.392 0 0 1-.52.107 7.865 7.865 0 0 1-.087.007l-.104.007c-.032 0-.067 0-.102.003h-.089c-.057 0-.114 0-.17-.007l-11.013-.726a3.35 3.35 0 0 1-.282-.035c-.02-.002-.04-.007-.057-.01a4.108 4.108 0 0 1-.288-.067 3.115 3.115 0 0 1-.23-.079l-.035-.015a2.142 2.142 0 0 1-.213-.104c-.29-.168-.485-.389-.535-.634l-1.293-6.375a.59.59 0 0 1-.012-.132l-.141 54.877c0 .042.005.086.012.131l1.293 6.375c.05.246.245.466.535.634.067.038.139.072.213.104l.035.015c.01.003.017.008.027.013.064.024.134.047.203.069l.025.007h.002c.065.018.132.035.201.05.02.005.04.007.06.01.02.002.037.007.056.01a3.495 3.495 0 0 0 .253.032h.03l11.012.726.139.007h.223c.034 0 .069-.005.104-.007.02 0 .04 0 .06-.005l.024-.003c.06-.007.119-.015.176-.024.01 0 .02 0 .027-.005h.002c.11-.02.214-.047.313-.077.005 0 .01 0 .014-.003.003 0 .005 0 .008-.002a2.21 2.21 0 0 0 .193-.074l.045-.023a2.135 2.135 0 0 0 .166-.086l.014-.01c.02-.013.04-.025.06-.04a.428.428 0 0 0 .057-.042l.052-.042c.012-.01.027-.02.04-.032a1.092 1.092 0 0 0 .111-.119c.005-.005.007-.013.012-.018.02-.027.04-.057.057-.084v-.002c.015-.025.025-.05.035-.075a.11.11 0 0 1 .012-.024.809.809 0 0 0 .03-.099v-.003c0-.01 0-.022.003-.032.002-.022.007-.045.007-.067v-.015l.141-54.876c0 .027-.005.057-.007.084l.002-.012Z"/><path fill="url(#r)" fill-opacity=".7" d="M95.989 74.673s0 .023-.003.033a.813.813 0 0 1-.03.104.114.114 0 0 1-.012.024.677.677 0 0 1-.097.163c-.002.006-.007.01-.01.016a1.05 1.05 0 0 1-.101.109c-.015.015-.032.027-.05.042-.017.015-.034.03-.052.042-.017.015-.037.027-.057.042-.02.012-.037.027-.06.04l-.044.025a1.8 1.8 0 0 1-.138.071l-.045.023a2.19 2.19 0 0 1-.19.074c-.008 0-.015.005-.023.007a2.35 2.35 0 0 1-.31.077c-.012 0-.022.003-.034.005-.057.01-.114.017-.174.025l-.086.007-.104.008c-.033 0-.067 0-.102.002h-.087c-.057 0-.114 0-.17-.007l-11.013-.726a3.391 3.391 0 0 1-.282-.035c-.02-.002-.04-.007-.057-.01a4.056 4.056 0 0 1-.263-.059c-.007 0-.017-.005-.024-.007a3.162 3.162 0 0 1-.23-.08l-.035-.015a2.12 2.12 0 0 1-.213-.104c-.29-.168-.488-.388-.538-.634l-1.29-6.375a.48.48 0 0 1-.013-.131l-.14 54.876c0 .042.004.087.011.131l1.291 6.376c.05.245.245.468.537.634.067.037.14.072.213.104l.035.015c.01.002.017.007.027.012.065.025.134.047.204.069l.024.008h.003c.064.017.131.034.2.049a.41.41 0 0 0 .06.01c.02.003.037.008.057.01a3.495 3.495 0 0 0 .253.032h.03l11.011.726.139.007h.221c.034 0 .069-.005.104-.007.02 0 .04 0 .059-.005l.025-.002c.06-.008.116-.015.173-.025.01 0 .02 0 .03-.005h.005c.109-.02.213-.047.31-.077.004 0 .01 0 .014-.005.003 0 .005 0 .008-.002.066-.023.13-.047.19-.075l.045-.022a2.16 2.16 0 0 0 .139-.072l.027-.015c.005-.002.01-.007.015-.01a1.125 1.125 0 0 0 .116-.079l.052-.042c.013-.01.027-.02.037-.032a.462.462 0 0 0 .178-.221v-.002c.013-.025.026-.05.035-.074.003-.008.01-.018.013-.025a.775.775 0 0 0 .03-.099v-.003c0-.01 0-.022.004-.032.003-.022.008-.044.008-.067v-.015l.141-54.876c0 .027-.005.055-.007.084l.01-.01Z"/><path fill="url(#s)" d="M95.989 74.673s0 .023-.003.033a.813.813 0 0 1-.03.104.114.114 0 0 1-.012.024.677.677 0 0 1-.097.163c-.002.006-.007.01-.01.016a1.05 1.05 0 0 1-.101.109c-.015.015-.032.027-.05.042-.017.015-.034.03-.052.042-.017.015-.037.027-.057.042-.02.012-.037.027-.06.04l-.044.025a1.8 1.8 0 0 1-.138.071l-.045.023a2.19 2.19 0 0 1-.19.074c-.008 0-.015.005-.023.007a2.35 2.35 0 0 1-.31.077c-.012 0-.022.003-.034.005-.057.01-.114.017-.174.025l-.086.007-.104.008c-.033 0-.067 0-.102.002h-.087c-.057 0-.114 0-.17-.007l-11.013-.726a3.391 3.391 0 0 1-.282-.035c-.02-.002-.04-.007-.057-.01a4.056 4.056 0 0 1-.263-.059c-.007 0-.017-.005-.024-.007a3.162 3.162 0 0 1-.23-.08l-.035-.015a2.12 2.12 0 0 1-.213-.104c-.29-.168-.488-.388-.538-.634l-1.29-6.375a.48.48 0 0 1-.013-.131l-.14 54.876c0 .042.004.087.011.131l1.291 6.376c.05.245.245.468.537.634.067.037.14.072.213.104l.035.015c.01.002.017.007.027.012.065.025.134.047.204.069l.024.008h.003c.064.017.131.034.2.049a.41.41 0 0 0 .06.01c.02.003.037.008.057.01a3.495 3.495 0 0 0 .253.032h.03l11.011.726.139.007h.221c.034 0 .069-.005.104-.007.02 0 .04 0 .059-.005l.025-.002c.06-.008.116-.015.173-.025.01 0 .02 0 .03-.005h.005c.109-.02.213-.047.31-.077.004 0 .01 0 .014-.005.003 0 .005 0 .008-.002.066-.023.13-.047.19-.075l.045-.022a2.16 2.16 0 0 0 .139-.072l.027-.015c.005-.002.01-.007.015-.01a1.125 1.125 0 0 0 .116-.079l.052-.042c.013-.01.027-.02.037-.032a.462.462 0 0 0 .178-.221v-.002c.013-.025.026-.05.035-.074.003-.008.01-.018.013-.025a.775.775 0 0 0 .03-.099v-.003c0-.01 0-.022.004-.032.003-.022.008-.044.008-.067v-.015l.141-54.876c0 .027-.005.055-.007.084l.01-.01Z"/><path fill="url(#t)" d="M95.989 74.673s0 .023-.003.033a.813.813 0 0 1-.03.104.114.114 0 0 1-.012.024.677.677 0 0 1-.097.163c-.002.006-.007.01-.01.016a1.05 1.05 0 0 1-.101.109c-.015.015-.032.027-.05.042-.017.015-.034.03-.052.042-.017.015-.037.027-.057.042-.02.012-.037.027-.06.04l-.044.025a1.8 1.8 0 0 1-.138.071l-.045.023a2.19 2.19 0 0 1-.19.074c-.008 0-.015.005-.023.007a2.35 2.35 0 0 1-.31.077c-.012 0-.022.003-.034.005-.057.01-.114.017-.174.025l-.086.007-.104.008c-.033 0-.067 0-.102.002h-.087c-.057 0-.114 0-.17-.007l-11.013-.726a3.391 3.391 0 0 1-.282-.035c-.02-.002-.04-.007-.057-.01a4.056 4.056 0 0 1-.263-.059c-.007 0-.017-.005-.024-.007a3.162 3.162 0 0 1-.23-.08l-.035-.015a2.12 2.12 0 0 1-.213-.104c-.29-.168-.488-.388-.538-.634l-1.29-6.375a.48.48 0 0 1-.013-.131l-.14 54.876c0 .042.004.087.011.131l1.291 6.376c.05.245.245.468.537.634.067.037.14.072.213.104l.035.015c.01.002.017.007.027.012.065.025.134.047.204.069l.024.008h.003c.064.017.131.034.2.049a.41.41 0 0 0 .06.01c.02.003.037.008.057.01a3.495 3.495 0 0 0 .253.032h.03l11.011.726.139.007h.221c.034 0 .069-.005.104-.007.02 0 .04 0 .059-.005l.025-.002c.06-.008.116-.015.173-.025.01 0 .02 0 .03-.005h.005c.109-.02.213-.047.31-.077.004 0 .01 0 .014-.005.003 0 .005 0 .008-.002.066-.023.13-.047.19-.075l.045-.022a2.16 2.16 0 0 0 .139-.072l.027-.015c.005-.002.01-.007.015-.01a1.125 1.125 0 0 0 .116-.079l.052-.042c.013-.01.027-.02.037-.032a.462.462 0 0 0 .178-.221v-.002c.013-.025.026-.05.035-.074.003-.008.01-.018.013-.025a.775.775 0 0 0 .03-.099v-.003c0-.01 0-.022.004-.032.003-.022.008-.044.008-.067v-.015l.141-54.876c0 .027-.005.055-.007.084l.01-.01Z"/><path fill="#fff" fill-opacity=".8" d="M94.147 67.44c.292.17.49.392.545.642l1.29 6.376c.14.669-.814 1.224-1.969 1.144l-11.012-.726c-.43-.032-.817-.146-1.107-.314-.29-.168-.488-.389-.537-.634l-1.29-6.376c-.14-.668.814-1.223 1.968-1.144l11.013.726a2.54 2.54 0 0 1 1.097.31l.002-.003Z"/><path fill="url(#u)" d="M94.147 67.44c.292.17.49.392.545.642l1.29 6.376c.14.669-.814 1.224-1.969 1.144l-11.012-.726c-.43-.032-.817-.146-1.107-.314-.29-.168-.488-.389-.537-.634l-1.29-6.376c-.14-.668.814-1.223 1.968-1.144l11.013.726a2.54 2.54 0 0 1 1.097.31l.002-.003Z"/><path fill="#fff" fill-opacity=".8" d="M73.368 70.158c.141.669-.815 1.224-1.972 1.147l-11.012-.726c-.43-.032-.817-.146-1.107-.314-.29-.169-.486-.39-.535-.635l-1.293-6.375c-.139-.669.817-1.224 1.972-1.147l11.012.728c.43.03.817.147 1.107.313.29.165.485.388.535.636l1.29 6.376.003-.003Z"/><path fill="url(#v)" d="M73.368 70.158c.141.669-.815 1.224-1.972 1.147l-11.012-.726c-.43-.032-.817-.146-1.107-.314-.29-.169-.486-.39-.535-.635l-1.293-6.375c-.139-.669.817-1.224 1.972-1.147l11.012.728c.43.03.817.147 1.107.313.29.165.485.388.535.636l1.29 6.376.003-.003Z"/><path fill="#fff" fill-opacity=".8" d="M72.553 54.474c-.138-.668.815-1.223 1.972-1.146l11.012.728c.429.032.815.146 1.107.314.293.169.488.39.535.634l1.29 6.376c.14.671-.814 1.226-1.97 1.147L75.485 61.8c-.43-.032-.817-.146-1.107-.315-.29-.168-.486-.389-.535-.634l-1.293-6.375.002-.003Z"/><path fill="url(#w)" d="M72.553 54.474c-.138-.668.815-1.223 1.972-1.146l11.012.728c.429.032.815.146 1.107.314.293.169.488.39.535.634l1.29 6.376c.14.671-.814 1.226-1.97 1.147L75.485 61.8c-.43-.032-.817-.146-1.107-.315-.29-.168-.486-.389-.535-.634l-1.293-6.375.002-.003Z"/><g opacity=".62"><path fill="#fff" fill-opacity=".8" d="M71.313 60.216c.139.669-.815 1.224-1.971 1.147l-11.013-.726c-.43-.032-.817-.146-1.107-.315-.29-.168-.488-.388-.537-.634l-1.29-6.375c-.14-.669.817-1.224 1.97-1.147l11.013.726c.424.027.808.141 1.1.307.292.166.49.391.545.642l1.29 6.375Z"/><path fill="url(#x)" d="M71.313 60.216c.139.669-.815 1.224-1.971 1.147l-11.013-.726c-.43-.032-.817-.146-1.107-.315-.29-.168-.488-.388-.537-.634l-1.29-6.375c-.14-.669.817-1.224 1.97-1.147l11.013.726c.424.027.808.141 1.1.307.292.166.49.391.545.642l1.29 6.375Z"/></g><g clip-path="url(#y)"><path fill="#187256" d="M55.214 27.314v.001ZM55.173 27.29c.014.01.027.017.041.025l-.04-.024h-.001Z"/><path fill="url(#z)" d="M77.857 27.024h-.002c-.342-.013-.685-.025-1.032-.035l-.522-.017-.587-.018c-.24-.007-.483-.015-.726-.02a1531.14 1531.14 0 0 0-1.46-.04l-1.217-.028-1.227-.026-1.234-.025c-.205-.005-.412-.007-.62-.012l.412 2.185c2.842.054 5.644.118 8.221.215l-.006-2.179Z"/><path fill="#2FE4AB" d="M97.834 34.713c-.062-1.894-1.48-3.5-3.563-4.718-2.112-1.233-4.908-2.067-7.67-2.392-2.358-.279-5.389-.456-8.743-.579h-.003l.01 2.179c3.109.117 5.89.281 8.015.531 1.806.213 4.11.816 5.824 1.816 1.38.807 2.376 1.871 2.419 3.2.066 2.03-4.371 5.386-10.405 5.684-2.151.107-6.207.015-9.296-1.79-1.725-1.008-3.146-2.546-3.766-4.88-.482-1.819-.767-3.387-1.015-4.776l-.41-2.185c-.54-2.542-1.325-4.38-3.886-5.877-2.446-1.429-7.59-1.74-10.548 0-2.555 1.504-2.608 4.129-.29 5.914l2.66-1.565c-.915-.917-.863-2.148.264-2.81 1.395-.822 4.126-.685 5.3 0 1.667.975 2.296 2.312 2.747 4.27l.426 2.184.023.135c.258 1.452.55 3.098 1.066 5.036.683 2.586 2.284 4.62 4.77 6.074.727.423 1.529.796 2.395 1.115 3.745 1.391 7.802 1.423 9.886 1.32 5.583-.276 13.935-3.561 13.79-7.886Z"/><path fill="url(#A)" d="M97.834 34.712v.222a3.28 3.28 0 0 1-.017.235l-.009.07a3.1 3.1 0 0 1-.032.204l-.008.048a3.714 3.714 0 0 1-.061.25l-.017.06a3.61 3.61 0 0 1-.067.201l-.02.057c-.033.088-.07.175-.109.261l-.026.054a4.628 4.628 0 0 1-.14.273c-.013.023-.028.045-.04.068l-.066.11-.047.073a2.423 2.423 0 0 1-.069.103l-.052.076a3.889 3.889 0 0 1-.128.176c-.023.03-.045.06-.07.09-.036.046-.075.091-.113.138-.016.02-.031.04-.049.059a7.29 7.29 0 0 1-.42.45l-.131.127-.078.073-.113.102-.084.075-.12.102-.086.07c-.043.036-.086.071-.13.105l-.082.066c-.05.04-.102.077-.152.115l-.067.051c-.073.056-.15.11-.227.165l-.036.024c-.065.046-.132.091-.2.137-.027.019-.056.036-.084.055l-.157.103-.099.061-.15.094-.073.044c-.138.083-.28.167-.424.247l-.057.033c-.145.08-.293.16-.442.238l-.06.03c-.15.078-.304.155-.46.23-.02.01-.04.018-.06.029-.156.074-.314.147-.473.218l-.06.026c-.161.07-.323.14-.487.208l-.06.025c-.166.067-.33.133-.498.197-.02.008-.041.015-.061.024-.168.064-.337.126-.507.186-.02.007-.04.015-.06.02-.171.06-.342.119-.514.175l-.046.014c-.264.085-.529.167-.795.245l-.017.004c-.268.078-.535.15-.805.218-.007.002-.014.003-.02.006a26.94 26.94 0 0 1-1.613.353l-.073.013c-.128.024-.257.046-.384.066l-.035.006-.353.054-.091.013c-.126.018-.25.035-.375.05l-.048.006c-.111.013-.223.026-.333.037l-.084.008c-.133.014-.264.025-.394.036a12.94 12.94 0 0 1-.765.042l-.133.004-.21.008h-.04l-.18.004h-.079l-.152.003h-.593c-.05 0-.101 0-.153-.002h-.106c-.054 0-.109 0-.165-.002-.033 0-.068 0-.101-.002-.03 0-.061-.001-.09-.003l-.288-.009a17.395 17.395 0 0 1-.479-.022h-.014c-.122-.005-.246-.014-.372-.021l-.11-.008c-.106-.007-.213-.016-.321-.025l-.079-.006c-.244-.02-.493-.045-.746-.073l-.05-.006a28.762 28.762 0 0 1-.737-.093c-.025-.003-.048-.008-.073-.01a24.472 24.472 0 0 1-.684-.109l-.056-.01c-.245-.043-.492-.09-.74-.142-.003 0-.005 0-.008-.002a20.056 20.056 0 0 1-.746-.17c-.014-.002-.028-.007-.043-.01a21.023 21.023 0 0 1-.707-.189l-.079-.023a17.207 17.207 0 0 1-.59-.182l-.055-.017a17.845 17.845 0 0 1-1.153-.425l-.222-.092a21.427 21.427 0 0 1-.573-.256c-.125-.06-.248-.122-.371-.183l-.174-.088c-.176-.092-.35-.188-.52-.287-2.487-1.453-4.088-3.488-4.771-6.073-.516-1.939-.81-3.585-1.067-5.037l-.023-.135-.026 9.41.023.135c.258 1.452.55 3.098 1.067 5.037.682 2.585 2.284 4.62 4.772 6.073.169.098.342.193.519.287.056.03.116.058.174.088a10.764 10.764 0 0 0 .581.28 16.78 16.78 0 0 0 .583.251l.134.056a16.105 16.105 0 0 0 1.02.369l.054.017c.197.065.394.125.59.182.017.004.034.01.05.015l.029.007c.236.067.472.13.707.189l.044.01c.249.062.498.117.745.17h.01c.248.051.495.098.74.142l.056.01c.23.04.459.076.684.109l.034.005.037.005c.25.035.497.067.738.093.016.002.033.005.05.006.253.028.501.053.748.074h.014l.06.004c.11.009.216.018.323.025.037.003.074.006.11.007.126.009.25.016.372.022h.015c.127.008.251.012.374.018.035 0 .07.003.103.004.097.003.193.008.288.009l.058.001h.033l.104.002c.054 0 .107.001.161.003h.852c.05 0 .1-.002.148-.003h.082c.061 0 .119-.003.178-.004h.044l.202-.006h.009l.132-.005c.027 0 .058-.001.085-.003l.204-.009c.133-.005.268-.016.404-.024l.072-.006c.13-.01.262-.022.395-.035.012 0 .022-.002.033-.003l.05-.006.334-.037a.52.52 0 0 0 .047-.006c.125-.014.25-.032.375-.05l.091-.013c.118-.017.235-.035.353-.054a.356.356 0 0 0 .037-.006c.127-.02.256-.044.385-.066l.044-.007a25.017 25.017 0 0 0 .802-.161l.042-.009c.265-.058.53-.12.794-.187.008-.002.015-.003.022-.006.268-.069.537-.14.804-.218l.016-.005c.267-.077.531-.158.795-.244l.024-.007.022-.008c.172-.055.343-.114.514-.174l.06-.022a29.949 29.949 0 0 0 .568-.21c.168-.064.332-.13.497-.197l.061-.025c.164-.067.326-.137.486-.208.02-.009.04-.017.061-.028.16-.071.317-.143.473-.218l.061-.029c.155-.075.308-.15.459-.228l.059-.031c.15-.078.297-.158.443-.239l.058-.032c.144-.08.285-.164.424-.247.011-.006.021-.014.033-.02a13.89 13.89 0 0 0 .288-.18c.053-.033.105-.068.158-.102.027-.02.056-.037.083-.056l.206-.14.029-.02.227-.165.065-.05c.052-.039.104-.077.155-.117.027-.02.053-.042.08-.064a4.72 4.72 0 0 0 .133-.107l.084-.07.121-.104.082-.073c.04-.034.077-.07.115-.103l.045-.04a.62.62 0 0 0 .033-.033l.132-.127.063-.063.164-.17.02-.022a5.25 5.25 0 0 0 .172-.195c.018-.019.033-.04.05-.06a3.347 3.347 0 0 0 .137-.168l.045-.06.058-.076.07-.1c.018-.025.037-.05.053-.076.023-.034.044-.069.066-.103l.048-.073.065-.11.04-.069.008-.011.011-.024c.044-.079.084-.158.122-.237l.026-.054a3.634 3.634 0 0 0 .116-.28l.013-.038c.024-.067.046-.135.066-.202l.018-.06c.023-.082.043-.165.06-.249 0-.004.003-.008.003-.013.003-.012.003-.025.006-.036a3.341 3.341 0 0 0 .058-.517V44.3l.026-9.393v-.001a4.93 4.93 0 0 0 0-.204l.004.01Z"/><path fill="url(#B)" d="m65.902 28.919-1.405-.025-.63-.013c-.054 0-.108-.003-.161-.005a45.894 45.894 0 0 1-.662-.02c-.031 0-.062-.003-.094-.003-.21-.007-.416-.016-.619-.026l-.136-.006-.424-.024-.198-.011a1.47 1.47 0 0 1-.12-.009l-.306-.022-.227-.016-.303-.025a27.594 27.594 0 0 1-.713-.073l-.147-.018a25 25 0 0 1-.525-.069 19.517 19.517 0 0 1-.492-.078l-.242-.043a14.637 14.637 0 0 1-.292-.056l-.023-.004c-.083-.016-.162-.035-.243-.053a15.56 15.56 0 0 1-.615-.152 11.165 11.165 0 0 1-.73-.227 9.585 9.585 0 0 1-.224-.082c-.095-.037-.19-.073-.283-.113l-.028-.012-.045-.019a8.483 8.483 0 0 1-.363-.168c-.026-.013-.05-.026-.077-.038a6.966 6.966 0 0 1-.357-.193c-.085-.05-.165-.103-.246-.154l-.145-.092c-.073-.05-.141-.101-.21-.153-.036-.025-.072-.05-.105-.076-1.126-.864-1.693-1.924-1.69-2.957l-.026 9.41c-.003 1.034.563 2.094 1.684 2.956.036.028.075.054.112.08.066.05.133.1.203.147l.024.016c.039.026.082.051.123.078.055.035.108.071.166.106.007.005.015.01.038.022.014.01.027.017.042.025.02.012.039.024.076.044l.063.035.062.034.036.019.007.003.007.004.026.014.064.032.06.029h.002c.002 0 .003 0 .005.002l.076.038a.041.041 0 0 1 .012.005.044.044 0 0 1 .012.006l.041.02c.022.011.042.021.07.033l.077.035a.68.68 0 0 0 .042.02c.004 0 .008.004.014.005.003 0 .004.002.006.003l.011.004.054.024h.003c.003 0 .004.001.007.003l.078.032.068.028a.081.081 0 0 0 .02.007c.003 0 .005.002.008.003l.021.009h.003v.001l.02.008.034.013.036.014h.003a.663.663 0 0 1 .013.005l.064.023.065.024h.003l.008.003a.531.531 0 0 0 .038.013l.013.004.053.02c.003 0 .005 0 .008.002.011.005.026.009.042.015l.046.016c.004 0 .007.003.011.004l.024.008.082.027.074.024.066.02h.006l.01.003a.132.132 0 0 1 .022.007l.016.005.046.015.076.022a23.573 23.573 0 0 0 .049.014.175.175 0 0 0 .035.009c.024.007.049.013.086.025.026.007.052.015.078.02.008.002.016.005.025.006l.01.003.028.007.02.005h.004l.087.022c.009.001.017.004.025.006l.049.013H57.608l.09.022.04.009.006.001.03.007c.048.012.096.022.145.033l.01.002H57.938c.003 0 .006 0 .009.002l.09.019.043.009.007.001c.003 0 .006 0 .007.002l.12.025.024.004c.005 0 .011.003.019.003l.049.01.013.003.049.009.214.04c.012 0 .025.004.036.005l.05.01c.01 0 .02.002.028.004l.044.007.039.006h.003l.036.005h.014c.026.005.051.01.077.012.022.003.045.008.067.01l.07.012h.002l.074.012.039.006h.011c.008 0 .015.001.022.003h.003l.012.001h.002c.006 0 .01 0 .016.002h.005l.06.008.032.005.136.017.115.015c.01 0 .02.003.03.004l.022.003.139.016.075.01c.007 0 .016 0 .023.002h.016c.019.002.036.005.055.006h.023l.138.015.1.01.137.014.048.005h.011l.081.007h.006c.013 0 .028.003.04.005l.17.014c.014 0 .029.003.045.005l.032.003h.028l.061.004.083.006.1.009.102.007c.015 0 .028.001.042.003.028.001.054.004.081.006l.084.006c.03.001.06.002.088.005.018 0 .034.003.051.003l.045.003.132.01c.03 0 .059.004.088.005l.224.013.064.003h.023l.142.007.16.008.235.01c.035 0 .066.003.101.004l.185.008h.036l.055.001c.02 0 .04 0 .06.002l.328.01c.045 0 .088.003.135.004l.204.006c.017 0 .034 0 .052.002l.08.001h.056a54.119 54.119 0 0 0 .57.012l1.408.025.026-9.41.007.045Z"/><path fill="url(#C)" d="M57.167 25.275c-.423-.423-.64-.912-.64-1.383 0-.014 0-.029.002-.043.001-.05.006-.102.013-.151l.004-.034c-.001-.001-.001-.004.002-.006a1.617 1.617 0 0 1 .072-.281 1.223 1.223 0 0 1 .098-.214c.008-.014.018-.027.026-.042l.018-.03.043-.067a.256.256 0 0 1 .019-.026l.029-.04a.035.035 0 0 0 .007-.008c.005-.003.007-.008.01-.01l.026-.031c.038-.046.08-.091.125-.135l.017-.018c.055-.052.114-.102.18-.15.01-.008.023-.014.033-.023l.123-.083.056-.035a2.738 2.738 0 0 1 .295-.15c.074-.035.15-.065.229-.093l.098-.035c.012-.005.023-.01.035-.012l.022-.006a5 5 0 0 1 .283-.082l.042-.01c.05-.012.099-.024.148-.034.05-.01.101-.022.152-.03a.082.082 0 0 1 .019-.003 4.09 4.09 0 0 1 .295-.047c.062-.01.124-.016.186-.022l.055-.006.228-.02c.075-.003.15-.008.227-.01a.02.02 0 0 1 .013 0h.009a7.753 7.753 0 0 1 .698.006l.213.015c.009 0 .016 0 .023.002.073.005.142.013.213.02l.21.028.011.001a6.115 6.115 0 0 1 .528.097l.086.02c.084.02.165.041.243.066a2.196 2.196 0 0 1 .194.062c.05.017.1.035.147.054l.02.007c.031.012.063.025.093.04l.084.037.04.02c.03.013.056.028.083.043l.078.042c1.667.975 2.297 2.312 2.748 4.27l-.884-.014c-3.826-.07-5.723-.334-6.767-.943a3.262 3.262 0 0 1-.659-.503h-.001Z"/><path fill="url(#D)" d="M93.82 33.58a3.907 3.907 0 0 0-.664-.92c-.396-.413-.892-.782-1.452-1.11a9.66 9.66 0 0 0-.35-.193l-.12-.062c-.08-.04-.16-.082-.242-.121l-.146-.07a11.09 11.09 0 0 0-.388-.172l-.226-.095a3.957 3.957 0 0 0-.178-.07l-.178-.068-.19-.07a2.804 2.804 0 0 0-.102-.037l-.078-.026-.193-.066-.186-.06a9.815 9.815 0 0 0-.19-.059l-.182-.055a1.072 1.072 0 0 0-.072-.02l-.063-.018a20.88 20.88 0 0 0-.913-.234l-.28-.062-.015-.003-.035-.009-.021-.003-.045-.01c-.07-.013-.138-.028-.206-.04-.082-.017-.163-.032-.244-.046l-.113-.02a16.81 16.81 0 0 0-.476-.075 19.33 19.33 0 0 0-.392-.051c-.071-.01-.142-.017-.214-.026l-.219-.023-.145-.016-.037-.004c-.088-.01-.177-.018-.266-.027-.126-.013-.254-.025-.38-.036l-.088-.01c-.045-.004-.09-.008-.136-.01-.257-.024-.52-.046-.79-.067l-.267-.02-.045-.005a125.816 125.816 0 0 0-3.755-.22c-.04 0-.078-.002-.116-.004-.205-.01-.412-.019-.622-.027-.046-.002-.093-.003-.139-.006l-.06-.002-.367-.014c-.123-.006-.246-.01-.37-.015l-.98-.035-.41-.013-.59-.02-.41-.011-.61-.018a36.134 36.134 0 0 0-.408-.01l-.622-.018h-.016l-.635-.016-.38-.008-.698-.016a27.256 27.256 0 0 1-.35-.008l-.569-.012-1.543-.03v.009c.247 1.386.532 2.953 1.012 4.767.592 2.225 1.912 3.727 3.528 4.735l.298.009.357.008c.236.008.47.014.704.02l.312.01.67.022.333.01a1247.574 1247.574 0 0 1 1.72.064l.194.008c.213.008.424.019.632.027l.106.005.703.033.175.01c.19.01.376.018.562.029l.156.008.663.038.14.01c.18.01.357.021.532.033l.165.012.624.044.087.007c.178.013.354.028.527.04.06.007.121.011.18.017l.285.023a157.963 157.963 0 0 1 .664.063l.304.031.145.016.433.049a19.093 19.093 0 0 1 .867.127l.114.019a22.204 22.204 0 0 1 .566.111c.185.04.373.082.56.129.018.004.036.007.053.012.072.017.146.036.219.055 3.518-1.164 5.83-3.27 5.89-4.745v-.104a2.788 2.788 0 0 0-.303-1.168Z"/><path fill="url(#E)" d="m64.594 26.721.884.015.424 2.183-1.408-.025c-4.19-.076-7.204-.366-9.28-1.58a6.388 6.388 0 0 1-.71-.474l2.663-1.565c.181.183.404.353.66.503 1.043.61 2.942.874 6.767.943Z"/><path fill="url(#F)" d="m64.594 26.721.884.015.424 2.183-1.408-.025c-4.19-.076-7.204-.366-9.28-1.58a6.388 6.388 0 0 1-.71-.474l2.663-1.565c.181.183.404.353.66.503 1.043.61 2.942.874 6.767.943Z"/></g></g><defs><radialGradient id="c" cx="0" cy="0" r="1" gradientTransform="rotate(-109.983 58.2 2.62) scale(64.8164 146.635)" gradientUnits="userSpaceOnUse"><stop stop-color="#FFA843" stop-opacity=".01"/><stop offset="1" stop-color="#FF862F"/></radialGradient><radialGradient id="f" cx="0" cy="0" r="1" gradientTransform="rotate(-109.983 58.343 2.824) scale(64.8164 146.635)" gradientUnits="userSpaceOnUse"><stop stop-color="#FFA843" stop-opacity=".01"/><stop offset="1" stop-color="#FF862F"/></radialGradient><radialGradient id="h" cx="0" cy="0" r="1" gradientTransform="rotate(109.983 18.789 53.647) scale(64.8164 146.635)" gradientUnits="userSpaceOnUse"><stop stop-color="#FFA843" stop-opacity=".01"/><stop offset="1" stop-color="#FF862F"/></radialGradient><radialGradient id="i" cx="0" cy="0" r="1" gradientTransform="rotate(84.702 -4.102 62.477) scale(50.6483 14.0122)" gradientUnits="userSpaceOnUse"><stop stop-color="#fff"/><stop offset="1" stop-color="#fff" stop-opacity="0"/></radialGradient><radialGradient id="j" cx="0" cy="0" r="1" gradientTransform="matrix(1.22448 -55.32015 46.82333 1.0364 64.116 115.02)" gradientUnits="userSpaceOnUse"><stop offset=".673" stop-color="#287EFF" stop-opacity="0"/><stop offset="1" stop-color="#17D5FF"/></radialGradient><radialGradient id="k" cx="0" cy="0" r="1" gradientTransform="matrix(50.94756 34.19534 -22.16422 33.02242 27.72 31.764)" gradientUnits="userSpaceOnUse"><stop stop-color="#2238FF"/><stop offset="1" stop-color="#3D73FF" stop-opacity="0"/></radialGradient><radialGradient id="l" cx="0" cy="0" r="1" gradientTransform="rotate(84.705 3.837 72.468) scale(50.6501 14.0058)" gradientUnits="userSpaceOnUse"><stop stop-color="#fff"/><stop offset="1" stop-color="#fff" stop-opacity="0"/></radialGradient><radialGradient id="m" cx="0" cy="0" r="1" gradientTransform="matrix(1.22395 -55.32236 46.80175 1.03544 81.269 116.189)" gradientUnits="userSpaceOnUse"><stop offset=".673" stop-color="#287EFF" stop-opacity="0"/><stop offset="1" stop-color="#17D5FF"/></radialGradient><radialGradient id="n" cx="0" cy="0" r="1" gradientTransform="rotate(33.882 -31.607 90.15) scale(61.3406 39.7663)" gradientUnits="userSpaceOnUse"><stop stop-color="#2238FF"/><stop offset="1" stop-color="#3D73FF" stop-opacity="0"/></radialGradient><radialGradient id="o" cx="0" cy="0" r="1" gradientTransform="rotate(84.703 -8.531 68.577) scale(50.6483 14.01)" gradientUnits="userSpaceOnUse"><stop stop-color="#fff"/><stop offset="1" stop-color="#fff" stop-opacity="0"/></radialGradient><radialGradient id="p" cx="0" cy="0" r="1" gradientTransform="rotate(-88.732 96.966 28.659) scale(55.3337 46.8276)" gradientUnits="userSpaceOnUse"><stop offset=".673" stop-color="#287EFF" stop-opacity="0"/><stop offset="1" stop-color="#17D5FF"/></radialGradient><radialGradient id="q" cx="0" cy="0" r="1" gradientTransform="rotate(33.873 -53.597 69.751) scale(61.3529 39.7691)" gradientUnits="userSpaceOnUse"><stop stop-color="#2238FF"/><stop offset="1" stop-color="#3D73FF" stop-opacity="0"/></radialGradient><radialGradient id="r" cx="0" cy="0" r="1" gradientTransform="matrix(4.67418 50.43206 -13.94603 1.29256 83.151 75.038)" gradientUnits="userSpaceOnUse"><stop stop-color="#fff"/><stop offset="1" stop-color="#fff" stop-opacity="0"/></radialGradient><radialGradient id="s" cx="0" cy="0" r="1" gradientTransform="matrix(1.2239 -55.32016 46.80175 1.03544 88.779 129.265)" gradientUnits="userSpaceOnUse"><stop offset=".673" stop-color="#287EFF" stop-opacity="0"/><stop offset="1" stop-color="#17D5FF"/></radialGradient><radialGradient id="t" cx="0" cy="0" r="1" gradientTransform="rotate(33.881 -49.323 109.02) scale(61.3399 39.7653)" gradientUnits="userSpaceOnUse"><stop stop-color="#2238FF"/><stop offset="1" stop-color="#3D73FF" stop-opacity="0"/></radialGradient><radialGradient id="u" cx="0" cy="0" r="1" gradientTransform="rotate(105.608 28.39 68.85) scale(63.0908 26.4227)" gradientUnits="userSpaceOnUse"><stop stop-color="#78CEFF"/><stop offset="1" stop-color="#78CEFF" stop-opacity="0"/></radialGradient><radialGradient id="v" cx="0" cy="0" r="1" gradientTransform="rotate(72.897 1.226 63.7) scale(43.4992 54.1648)" gradientUnits="userSpaceOnUse"><stop stop-color="#00A3FF"/><stop offset="1" stop-color="#00A3FF" stop-opacity="0"/></radialGradient><radialGradient id="w" cx="0" cy="0" r="1" gradientTransform="rotate(76.76 15.317 62.423) scale(51.5565 64.1699)" gradientUnits="userSpaceOnUse"><stop stop-color="#00A3FF"/><stop offset="1" stop-color="#00A3FF" stop-opacity="0"/></radialGradient><radialGradient id="x" cx="0" cy="0" r="1" gradientTransform="matrix(16.7287 90.53158 -112.72664 20.82997 61.746 45.025)" gradientUnits="userSpaceOnUse"><stop stop-color="#00A3FF"/><stop offset="1" stop-color="#00A3FF" stop-opacity="0"/></radialGradient><radialGradient id="z" cx="0" cy="0" r="1" gradientTransform="matrix(-9.79118 0 0 -106.615 77.029 28.058)" gradientUnits="userSpaceOnUse"><stop stop-color="#2FE4AB"/><stop offset=".327" stop-color="#2FE4AB"/><stop offset="1" stop-color="#0F7C76"/></radialGradient><radialGradient id="A" cx="0" cy="0" r="1" gradientTransform="matrix(-35.73783 -8.07747 228.84317 -1012.49054 96.122 45.682)" gradientUnits="userSpaceOnUse"><stop stop-color="#2FE4AB" stop-opacity=".4"/><stop offset="1" stop-color="#0F7C76"/></radialGradient><radialGradient id="B" cx="0" cy="0" r="1" gradientTransform="matrix(17.62417 8.32252 -356.77885 755.53244 48.39 29.038)" gradientUnits="userSpaceOnUse"><stop stop-color="#2FE4AB" stop-opacity=".4"/><stop offset=".412" stop-color="#2FE4AB" stop-opacity=".7"/><stop offset="1" stop-color="#0F7C76"/></radialGradient><radialGradient id="C" cx="0" cy="0" r="1" gradientTransform="rotate(-137.726 47.578 6.735) scale(29.1113 616.254)" gradientUnits="userSpaceOnUse"><stop stop-color="#2FE4AB"/><stop offset=".327" stop-color="#2FE4AB"/><stop offset="1" stop-color="#0F7C76"/></radialGradient><radialGradient id="D" cx="0" cy="0" r="1" gradientTransform="matrix(-26.93328 -1.18865 20.22249 -458.21598 95.235 35.183)" gradientUnits="userSpaceOnUse"><stop stop-color="#2FE4AB" stop-opacity="0"/><stop offset=".5" stop-color="#24B185" stop-opacity=".7"/><stop offset="1" stop-color="#0F7C76"/></radialGradient><radialGradient id="E" cx="0" cy="0" r="1" gradientTransform="matrix(11.25989 3.18213 -39.86006 141.0438 56.468 25.61)" gradientUnits="userSpaceOnUse"><stop stop-color="#2FE4AB"/><stop offset=".321" stop-color="#2FE4AB"/><stop offset="1" stop-color="#0F7C76"/></radialGradient><radialGradient id="F" cx="0" cy="0" r="1" gradientTransform="matrix(11.25989 3.18213 -39.86006 141.0438 56.468 25.61)" gradientUnits="userSpaceOnUse"><stop stop-color="#2FE4AB"/><stop offset=".321" stop-color="#2FE4AB"/><stop offset="1" stop-color="#0F7C76"/></radialGradient><linearGradient id="e" x1="-37" x2="186.5" y1="113.093" y2="113.093" gradientUnits="userSpaceOnUse"><stop stop-color="#FFAC47" stop-opacity=".34"/><stop offset=".332" stop-color="#FF932F"/><stop offset=".592" stop-color="#FFCB65" stop-opacity=".21"/><stop offset=".917" stop-color="#FFC165" stop-opacity=".5"/></linearGradient><linearGradient id="g" x1="-37" x2="186.5" y1="113.5" y2="113.5" gradientUnits="userSpaceOnUse"><stop stop-color="#FFAC47" stop-opacity=".34"/><stop offset=".332" stop-color="#FF932F"/><stop offset=".592" stop-color="#FFCB65" stop-opacity=".21"/><stop offset=".917" stop-color="#FFC165" stop-opacity=".5"/></linearGradient><clipPath id="a"><path fill="#fff" d="M0 0h150v150H0z"/></clipPath><clipPath id="y"><path fill="#fff" d="M52.796 19.736h45.039v32.31h-45.04z"/></clipPath><filter id="b" width="138.573" height="94.928" x="6.369" y="-4" color-interpolation-filters="sRGB" filterUnits="userSpaceOnUse"><feFlood flood-opacity="0" result="BackgroundImageFix"/><feBlend in="SourceGraphic" in2="BackgroundImageFix" result="shape"/><feGaussianBlur result="effect1_foregroundBlur_14675_358628" stdDeviation="9"/></filter><filter id="d" width="151" height="114.452" x="0" y="44.734" color-interpolation-filters="sRGB" filterUnits="userSpaceOnUse"><feFlood flood-opacity="0" result="BackgroundImageFix"/><feBlend in="SourceGraphic" in2="BackgroundImageFix" result="shape"/><feGaussianBlur result="effect1_foregroundBlur_14675_358628" stdDeviation="12"/></filter></defs></svg>