<svg xmlns="http://www.w3.org/2000/svg" width="44" height="44" fill="none" opt="1"><g clip-path="url(#a)"><path fill="#fff" fill-rule="evenodd" d="M6.209 18.617c0-.065.053-.118.118-.118h9.215c.065 0 .118.053.118.118v3.538a.12.12 0 0 1-.118.118H6.327a.12.12 0 0 1-.118-.118zm8.27 2.418a.06.06 0 0 1-.06.059H7.45a.06.06 0 0 1-.059-.06v-1.297a.06.06 0 0 1 .06-.059h6.97a.06.06 0 0 1 .059.06zm-7.207 2.654c.066 0 .118.053.118.118v.944a.12.12 0 0 1-.118.117h-.945a.12.12 0 0 1-.118-.117v-.944c0-.065.053-.118.118-.118zm21.856.118a.12.12 0 0 0-.118-.118h-.945a.12.12 0 0 0-.118.118v.944c0 .065.053.117.118.117h.945a.12.12 0 0 0 .118-.117zm-11.932-.118a.12.12 0 0 0-.118.118v.944c0 .065.053.117.118.117h9.215a.12.12 0 0 0 .118-.117v-.944a.12.12 0 0 0-.118-.118zm10.75-5.072c0-.065.054-.118.119-.118h9.215c.065 0 .118.053.118.118v3.538a.12.12 0 0 1-.118.118h-9.215a.12.12 0 0 1-.118-.118zm8.211 1.061a.06.06 0 0 1 .06.06v1.297a.06.06 0 0 1-.06.059h-6.97a.06.06 0 0 1-.059-.06v-1.297a.06.06 0 0 1 .06-.059zm-19.08-1.061c0-.065.054-.118.119-.118h9.215c.065 0 .118.053.118.118v3.538a.12.12 0 0 1-.118.118h-9.215a.12.12 0 0 1-.118-.118v-.943c0-.065.053-.118.118-.118h8.093a.06.06 0 0 0 .059-.06v-1.297a.06.06 0 0 0-.06-.059h-8.092a.12.12 0 0 1-.118-.118z" clip-rule="evenodd"/><g filter="url(#b)"><path fill="#fff" fill-opacity=".5" fill-rule="evenodd" d="M6.209 17.537c0-.065.053-.118.118-.118h9.215c.065 0 .118.053.118.118v3.539a.12.12 0 0 1-.118.118H6.327a.12.12 0 0 1-.118-.118zm8.27 2.419a.06.06 0 0 1-.06.058H7.45a.06.06 0 0 1-.059-.058v-1.298c0-.033.027-.059.06-.059h6.97a.06.06 0 0 1 .059.059zM7.272 22.61c.066 0 .118.052.118.117v.944a.12.12 0 0 1-.118.118h-.945a.12.12 0 0 1-.118-.118v-.944c0-.065.053-.117.118-.117zm21.856.117a.12.12 0 0 0-.118-.117h-.945a.12.12 0 0 0-.118.117v.944c0 .065.053.118.118.118h.945a.12.12 0 0 0 .118-.118zm-11.932-.117a.12.12 0 0 0-.118.117v.944c0 .065.053.118.118.118h9.215a.12.12 0 0 0 .118-.118v-.944a.12.12 0 0 0-.118-.117zm10.75-5.073c0-.065.054-.118.119-.118h9.215c.065 0 .118.053.118.118v3.539a.12.12 0 0 1-.118.118h-9.215a.12.12 0 0 1-.118-.118zm8.211 1.062a.06.06 0 0 1 .06.059v1.297a.06.06 0 0 1-.06.06h-6.97a.06.06 0 0 1-.059-.06v-1.297a.06.06 0 0 1 .06-.059zm-19.08-1.062c0-.065.054-.118.119-.118h9.215c.065 0 .118.053.118.118v3.539a.12.12 0 0 1-.118.118h-9.215a.12.12 0 0 1-.118-.118v-.944c0-.065.053-.118.118-.118h8.093a.06.06 0 0 0 .059-.058v-1.298a.06.06 0 0 0-.06-.059h-8.092a.12.12 0 0 1-.118-.118z" clip-rule="evenodd"/></g></g><defs><clipPath id="a"><path fill="#fff" d="M0 0h44v44H0z"/></clipPath><filter id="b" width="51.19" height="26.37" x="-3.791" y="7.419" color-interpolation-filters="sRGB" filterUnits="userSpaceOnUse"><feFlood flood-opacity="0" result="BackgroundImageFix"/><feBlend in="SourceGraphic" in2="BackgroundImageFix" result="shape"/><feGaussianBlur result="effect1_foregroundBlur_11613_72758" stdDeviation="5"/></filter></defs></svg>