<svg xmlns="http://www.w3.org/2000/svg" width="150" height="150" fill="none" opt="1"><path fill="#121314" fill-rule="evenodd" d="M21.168 63.466c0-.222.18-.402.403-.402h31.414c.223 0 .403.18.403.402v12.063c0 .223-.18.403-.403.403H21.571a.4.4 0 0 1-.403-.403zm28.192 8.243c0 .111-.09.201-.2.201H25.396a.2.2 0 0 1-.201-.2v-4.424c0-.11.09-.201.2-.201H49.16c.111 0 .201.09.201.201zm-24.567 9.048c.222 0 .402.18.402.402v3.217c0 .223-.18.402-.402.402H21.57a.4.4 0 0 1-.403-.402V81.16c0-.222.18-.402.403-.402zm74.508.402a.4.4 0 0 0-.402-.402h-3.222a.4.4 0 0 0-.403.402v3.217c0 .223.18.402.403.402h3.222c.222 0 .402-.18.402-.402zm-40.677-.402a.4.4 0 0 0-.403.402v3.217c0 .223.18.402.403.402h31.414c.223 0 .403-.18.403-.402V81.16a.4.4 0 0 0-.403-.402zm36.65-17.291c0-.222.18-.402.403-.402h31.414c.223 0 .403.18.403.402v12.063c0 .223-.18.403-.403.403H95.677a.4.4 0 0 1-.403-.403zm27.991 3.619c.111 0 .201.09.201.201v4.423c0 .111-.09.201-.201.201H99.503a.2.2 0 0 1-.202-.2v-4.424c0-.11.09-.201.202-.201zm-65.044-3.619c0-.222.18-.402.403-.402h31.414c.223 0 .403.18.403.402v12.063c0 .223-.18.403-.403.403H58.624a.4.4 0 0 1-.403-.403v-3.216c0-.223.18-.403.403-.403h27.588c.111 0 .201-.09.201-.2v-4.424a.2.2 0 0 0-.201-.201H58.624a.4.4 0 0 1-.403-.402z" clip-rule="evenodd"/><g filter="url(#a)"><path fill="#121314" fill-opacity=".5" fill-rule="evenodd" d="M21.168 59.787c0-.222.18-.402.403-.402h31.414c.223 0 .403.18.403.402V71.85c0 .222-.18.402-.403.402H21.571a.4.4 0 0 1-.403-.402zM49.36 68.03c0 .111-.09.201-.2.201H25.396a.2.2 0 0 1-.201-.2v-4.424c0-.111.09-.201.2-.201H49.16c.111 0 .201.09.201.2zm-24.567 9.048c.222 0 .402.18.402.402v3.217c0 .222-.18.402-.402.402H21.57a.4.4 0 0 1-.403-.402V77.48c0-.222.18-.402.403-.402zm74.508.402a.4.4 0 0 0-.402-.402h-3.222a.4.4 0 0 0-.403.402v3.217c0 .222.18.402.403.402h3.222c.222 0 .402-.18.402-.402zm-40.677-.402a.4.4 0 0 0-.403.402v3.217c0 .222.18.402.403.402h31.414c.223 0 .403-.18.403-.402V77.48a.4.4 0 0 0-.403-.402zm36.65-17.291c0-.222.18-.402.403-.402h31.414c.223 0 .403.18.403.402V71.85c0 .222-.18.402-.403.402H95.677a.4.4 0 0 1-.403-.402zm27.991 3.619c.111 0 .201.09.201.2v4.424c0 .111-.09.201-.201.201H99.503a.2.2 0 0 1-.202-.2v-4.424c0-.111.09-.201.202-.201zm-65.044-3.62c0-.221.18-.401.403-.401h31.414c.223 0 .403.18.403.402V71.85c0 .222-.18.402-.403.402H58.624a.4.4 0 0 1-.403-.402v-3.217c0-.222.18-.402.403-.402h27.588c.111 0 .201-.09.201-.2v-4.424a.2.2 0 0 0-.201-.201H58.624a.4.4 0 0 1-.403-.402z" clip-rule="evenodd"/></g><defs><filter id="a" width="126.326" height="41.715" x="11.168" y="49.385" color-interpolation-filters="sRGB" filterUnits="userSpaceOnUse"><feFlood flood-opacity="0" result="BackgroundImageFix"/><feBlend in="SourceGraphic" in2="BackgroundImageFix" result="shape"/><feGaussianBlur result="effect1_foregroundBlur_11487_88020" stdDeviation="5"/></filter></defs></svg>