<svg xmlns="http://www.w3.org/2000/svg" fill="none" viewBox="0 0 80 80" opt="1"><g filter="url(#a)" opacity=".8"><path fill="url(#b)" d="M23.081 23.64a21 21 0 0 1 2.136-2.5l.26.143 14.425 14.502.137.176z"/><path fill="url(#c)" d="M25.217 21.14a20.96 20.96 0 0 1 11.543-5.882l.145.399 3.134 20.026v.278z"/><path fill="url(#d)" d="M49.558 17.286a21 21 0 0 1 2.802 1.718l-.037.326L40.115 35.9l-.076.061z"/><path fill="url(#e)" d="M61 35.96c0 2.2-.346 4.386-1.026 6.478l-.495.08-19.286-6.479-.154-.078z"/><path fill="url(#f)" d="M59.974 42.438a21 21 0 0 1-2.977 5.843l-.477-.08-16.382-12.137-.099-.103z"/><path fill="url(#g)" d="M46.516 55.896a20.96 20.96 0 0 1-9.756.768l-.13-.402 3.314-19.944.095-.357z"/><path fill="url(#h)" d="M36.76 56.664a21 21 0 0 1-3.198-.768l-.058-.485L39.92 36.18l.119-.22z"/><path fill="url(#i)" d="M33.562 55.896a21 21 0 0 1-5.844-2.977v-.38l12.107-16.364.214-.214z"/><path fill="url(#j)" d="M21.363 45.477a20.96 20.96 0 0 1-2.285-9.516l.268-.1h20.015l.678.1z"/><path fill="url(#k)" d="M36.759 15.258a20.96 20.96 0 0 1 9.758.768l-6.478 19.935z"/><path fill="url(#l)" d="M52.36 19.003a20.96 20.96 0 0 1 7.614 10.48l-19.935 6.478z"/><path fill="url(#m)" d="M27.718 52.919a21 21 0 0 1-4.637-4.637L40.04 35.96z"/><path fill="url(#n)" d="M19.078 35.961c0-2.2.346-4.385 1.026-6.477l19.935 6.477z"/><path fill="url(#o)" d="M56.998 48.28a21 21 0 0 1-4.637 4.638L40.039 35.961z"/></g><path fill="url(#p)" d="M23.01 27.657a21 21 0 0 1 2.14-2.506l.262.144 14.45 14.529L40 40z"/><path fill="url(#q)" d="M25.15 25.151a21 21 0 0 1 11.565-5.892l.145.4L40 39.721V40z"/><path fill="url(#r)" d="M49.536 21.29c.98.5 1.919 1.075 2.808 1.722l-.037.326-12.23 16.602L40 40z"/><path fill="url(#s)" d="M61 40c0 2.204-.347 4.394-1.028 6.49l-.496.08-19.321-6.491L40 40z"/><path fill="url(#t)" d="M59.973 46.489a21 21 0 0 1-2.983 5.854l-.479-.081L40.1 40.103 40 40z"/><path fill="url(#u)" d="M46.49 59.972a21 21 0 0 1-9.775.77l-.131-.403 3.321-19.982L40 40z"/><path fill="url(#v)" d="M36.715 60.741a21 21 0 0 1-3.204-.769l-.058-.485 6.427-19.268L40 40z"/><path fill="url(#w)" d="M33.51 59.972a21 21 0 0 1-5.853-2.983v-.38l12.128-16.395L40 40z"/><path fill="url(#x)" d="M21.289 49.533A21 21 0 0 1 19 40l.269-.099H39.32L40 40z"/><path fill="url(#y)" d="M36.714 19.259a21 21 0 0 1 9.776.769L40 40z"/><path fill="url(#z)" d="M52.344 23.01a21 21 0 0 1 7.628 10.5L40 40z"/><path fill="url(#A)" d="M27.657 56.99a21 21 0 0 1-4.646-4.647L40 40z"/><path fill="url(#B)" d="M19 40c0-2.204.347-4.394 1.028-6.49L40 40z"/><path fill="url(#C)" d="M56.99 52.343a21 21 0 0 1-4.646 4.646L40 40z"/><defs><radialGradient id="b" cx="0" cy="0" r="1" gradientTransform="rotate(-139.191 26.708 10.534) scale(21.088)" gradientUnits="userSpaceOnUse"><stop stop-color="#A273FF"/><stop offset="1" stop-color="#4331E9"/></radialGradient><radialGradient id="c" cx="0" cy="0" r="1" gradientTransform="rotate(-98.995 35.378 .88) scale(21.4642)" gradientUnits="userSpaceOnUse"><stop stop-color="#F7A7F9"/><stop offset="1" stop-color="#00DDFB"/></radialGradient><radialGradient id="d" cx="0" cy="0" r="1" gradientTransform="rotate(180 20.02 17.98) scale(21.4789)" gradientUnits="userSpaceOnUse"><stop stop-color="#FFF3D0"/><stop offset="1" stop-color="#FFC044"/></radialGradient><radialGradient id="e" cx="0" cy="0" r="1" gradientTransform="matrix(0 -21.4424 21.4425 0 40.04 35.96)" gradientUnits="userSpaceOnUse"><stop stop-color="#A273FF"/><stop offset=".5" stop-color="#9FAEFF"/><stop offset="1" stop-color="#AAF2E1"/></radialGradient><radialGradient id="f" cx="0" cy="0" r="1" gradientTransform="rotate(35.99 -35.335 79.612) scale(21.3812)" gradientUnits="userSpaceOnUse"><stop stop-color="#0075FF"/><stop offset="1" stop-color="#00DDFB"/></radialGradient><radialGradient id="g" cx="0" cy="0" r="1" gradientTransform="rotate(90 2.039 38) scale(21.46 21.4599)" gradientUnits="userSpaceOnUse"><stop stop-color="#FFCD6B"/><stop offset="1" stop-color="#EB5EDF"/></radialGradient><radialGradient id="h" cx="0" cy="0" r="1" gradientTransform="rotate(90 2.039 38) scale(21.5043 21.5044)" gradientUnits="userSpaceOnUse"><stop stop-color="#D5FAFF"/><stop offset="1" stop-color="#00DDFB"/></radialGradient><radialGradient id="i" cx="0" cy="0" r="1" gradientTransform="rotate(114.172 8.381 30.939) scale(22.9754)" gradientUnits="userSpaceOnUse"><stop stop-color="#FFD2B9"/><stop offset=".29" stop-color="#C99BED"/><stop offset="1" stop-color="#0075FF"/></radialGradient><radialGradient id="j" cx="0" cy="0" r="1" gradientTransform="rotate(-180 20.02 17.98) scale(27.9203)" gradientUnits="userSpaceOnUse"><stop stop-color="#6D28FF"/><stop offset="1" stop-color="#F7A7F9"/></radialGradient><radialGradient id="k" cx="0" cy="0" r="1" gradientTransform="matrix(0 -21.4426 21.4425 0 40.039 35.961)" gradientUnits="userSpaceOnUse"><stop stop-color="#A273FF"/><stop offset=".5" stop-color="#9FAEFF"/><stop offset="1" stop-color="#AAF2E1"/></radialGradient><radialGradient id="l" cx="0" cy="0" r="1" gradientTransform="rotate(90 2.039 38) scale(21.46 21.4599)" gradientUnits="userSpaceOnUse"><stop stop-color="#FFCD6B"/><stop offset="1" stop-color="#EB5EDF"/></radialGradient><radialGradient id="m" cx="0" cy="0" r="1" gradientTransform="rotate(-139.191 26.708 10.533) scale(21.088)" gradientUnits="userSpaceOnUse"><stop stop-color="#A273FF"/><stop offset="1" stop-color="#4331E9"/></radialGradient><radialGradient id="n" cx="0" cy="0" r="1" gradientTransform="rotate(180 20.02 17.98) scale(21.4789)" gradientUnits="userSpaceOnUse"><stop stop-color="#FFF3D0"/><stop offset="1" stop-color="#FFC044"/></radialGradient><radialGradient id="o" cx="0" cy="0" r="1" gradientTransform="rotate(-139.191 26.708 10.533) scale(21.088)" gradientUnits="userSpaceOnUse"><stop stop-color="#A273FF"/><stop offset="1" stop-color="#4331E9"/></radialGradient><radialGradient id="p" cx="0" cy="0" r="1" gradientTransform="rotate(-139.191 27.44 12.56) scale(21.1273)" gradientUnits="userSpaceOnUse"><stop stop-color="#A273FF"/><stop offset="1" stop-color="#4331E9"/></radialGradient><radialGradient id="q" cx="0" cy="0" r="1" gradientTransform="rotate(-98.995 37.083 2.917) scale(21.5041)" gradientUnits="userSpaceOnUse"><stop stop-color="#F7A7F9"/><stop offset="1" stop-color="#00DDFB"/></radialGradient><radialGradient id="r" cx="0" cy="0" r="1" gradientTransform="rotate(180 20 20) scale(21.5188)" gradientUnits="userSpaceOnUse"><stop stop-color="#FFF3D0"/><stop offset="1" stop-color="#FFC044"/></radialGradient><radialGradient id="s" cx="0" cy="0" r="1" gradientTransform="matrix(0 -21.4823 21.4824 0 40 40)" gradientUnits="userSpaceOnUse"><stop stop-color="#A273FF"/><stop offset=".5" stop-color="#9FAEFF"/><stop offset="1" stop-color="#AAF2E1"/></radialGradient><radialGradient id="t" cx="0" cy="0" r="1" gradientTransform="rotate(35.99 -41.571 81.571) scale(21.421)" gradientUnits="userSpaceOnUse"><stop stop-color="#0075FF"/><stop offset="1" stop-color="#00DDFB"/></radialGradient><radialGradient id="u" cx="0" cy="0" r="1" gradientTransform="rotate(90 0 40) scale(21.4999)" gradientUnits="userSpaceOnUse"><stop stop-color="#FFCD6B"/><stop offset="1" stop-color="#EB5EDF"/></radialGradient><radialGradient id="v" cx="0" cy="0" r="1" gradientTransform="matrix(0 21.5443 -21.5444 0 40 40)" gradientUnits="userSpaceOnUse"><stop stop-color="#D5FAFF"/><stop offset="1" stop-color="#00DDFB"/></radialGradient><radialGradient id="w" cx="0" cy="0" r="1" gradientTransform="rotate(114.172 7.054 32.946) scale(23.0182)" gradientUnits="userSpaceOnUse"><stop stop-color="#FFD2B9"/><stop offset=".29" stop-color="#C99BED"/><stop offset="1" stop-color="#0075FF"/></radialGradient><radialGradient id="x" cx="0" cy="0" r="1" gradientTransform="rotate(-180 20 20) scale(27.9723)" gradientUnits="userSpaceOnUse"><stop stop-color="#6D28FF"/><stop offset="1" stop-color="#F7A7F9"/></radialGradient><radialGradient id="y" cx="0" cy="0" r="1" gradientTransform="matrix(0 -21.4825 21.4824 0 40 40)" gradientUnits="userSpaceOnUse"><stop stop-color="#A273FF"/><stop offset=".5" stop-color="#9FAEFF"/><stop offset="1" stop-color="#AAF2E1"/></radialGradient><radialGradient id="z" cx="0" cy="0" r="1" gradientTransform="rotate(90 0 40) scale(21.4999)" gradientUnits="userSpaceOnUse"><stop stop-color="#FFCD6B"/><stop offset="1" stop-color="#EB5EDF"/></radialGradient><radialGradient id="A" cx="0" cy="0" r="1" gradientTransform="rotate(-139.191 27.44 12.56) scale(21.1273)" gradientUnits="userSpaceOnUse"><stop stop-color="#A273FF"/><stop offset="1" stop-color="#4331E9"/></radialGradient><radialGradient id="B" cx="0" cy="0" r="1" gradientTransform="rotate(180 20 20) scale(21.5188)" gradientUnits="userSpaceOnUse"><stop stop-color="#FFF3D0"/><stop offset="1" stop-color="#FFC044"/></radialGradient><radialGradient id="C" cx="0" cy="0" r="1" gradientTransform="rotate(-139.191 27.44 12.56) scale(21.1273)" gradientUnits="userSpaceOnUse"><stop stop-color="#A273FF"/><stop offset="1" stop-color="#4331E9"/></radialGradient><filter id="a" width="69.922" height="69.922" x="5.078" y="1" color-interpolation-filters="sRGB" filterUnits="userSpaceOnUse"><feFlood flood-opacity="0" result="BackgroundImageFix"/><feBlend in="SourceGraphic" in2="BackgroundImageFix" result="shape"/><feGaussianBlur result="effect1_foregroundBlur_5972_736" stdDeviation="7"/></filter></defs></svg>