<svg xmlns="http://www.w3.org/2000/svg" width="150" height="150" fill="none" opt="1"><mask id="a" width="101" height="83" x="25" y="33" maskUnits="userSpaceOnUse" style="mask-type:luminance"><path fill="#fff" d="M123.704 35.478 105.24 53.943a17.8 17.8 0 0 1-12.59 5.216H58.262a17.803 17.803 0 0 1-12.59-5.215c-6.158-6.159-12.31-12.31-18.464-18.469l-1.726-1.725a49 49 0 0 0 .587 4.043 49.4 49.4 0 0 0 4.136 12.588A50.3 50.3 0 0 0 35 58.291a28.14 28.14 0 0 0 12.524 9.528 28.6 28.6 0 0 0 10.297 1.915h35.27a28.6 28.6 0 0 0 10.297-1.915 28.14 28.14 0 0 0 12.524-9.527 50 50 0 0 0 4.792-7.908 49.364 49.364 0 0 0 4.139-12.591c.269-1.43.457-2.783.587-4.043q-.866.864-1.726 1.728M29.317 72.966l12.149 12.153h19.232l-9.615 9.614 7.479 7.479 17.092-17.094h33.408l12.156-12.152c-4.131-4.128-10.826-4.13-14.957 0l-1.574 1.577h-58.84l-1.577-1.577a10.54 10.54 0 0 0-7.475-3.097 10.55 10.55 0 0 0-7.478 3.097m49.002 16.96-16.186 15.857 6.973 6.974a8.71 8.71 0 0 0 12.32 0l22.83-22.831z"/></mask><g mask="url(#a)"><path fill="url(#b)" d="M125.618 33.771H25.293v81.518h100.325z"/></g><g filter="url(#c)" opacity=".8"><mask id="d" width="101" height="82" x="25" y="26" maskUnits="userSpaceOnUse" style="mask-type:luminance"><path fill="#fff" d="M123.704 27.978 105.24 46.443a17.8 17.8 0 0 1-12.59 5.216H58.262a17.803 17.803 0 0 1-12.59-5.215c-6.158-6.159-12.31-12.31-18.464-18.469l-1.726-1.725a49 49 0 0 0 .587 4.043 49.4 49.4 0 0 0 4.136 12.588A50.3 50.3 0 0 0 35 50.791a28.14 28.14 0 0 0 12.524 9.528 28.6 28.6 0 0 0 10.297 1.915h35.27a28.6 28.6 0 0 0 10.297-1.916 28.14 28.14 0 0 0 12.524-9.526 50 50 0 0 0 4.792-7.908 49.364 49.364 0 0 0 4.139-12.591c.269-1.43.457-2.783.587-4.043q-.866.864-1.726 1.728M29.317 65.466l12.149 12.153h19.232l-9.615 9.614 7.479 7.479 17.092-17.094h33.408l12.156-12.152c-4.131-4.128-10.826-4.13-14.957 0l-1.574 1.577h-58.84l-1.577-1.577a10.54 10.54 0 0 0-7.475-3.097 10.55 10.55 0 0 0-7.478 3.097m49.002 16.96L62.133 98.284l6.973 6.973a8.71 8.71 0 0 0 12.32 0l22.83-22.831z"/></mask><g mask="url(#d)"><path fill="url(#e)" d="M125.618 26.271H25.293v81.518h100.325z"/></g></g><defs><linearGradient id="b" x1="25.293" x2="125.618" y1="73.295" y2="73.295" gradientUnits="userSpaceOnUse"><stop offset=".26" stop-color="#4919F9"/><stop offset=".714" stop-color="#ED8620"/></linearGradient><linearGradient id="e" x1="25.293" x2="125.618" y1="65.795" y2="65.795" gradientUnits="userSpaceOnUse"><stop offset=".26" stop-color="#4919F9"/><stop offset=".714" stop-color="#ED8620"/></linearGradient><filter id="c" width="127.947" height="109.518" x="11.482" y="12.271" color-interpolation-filters="sRGB" filterUnits="userSpaceOnUse"><feFlood flood-opacity="0" result="BackgroundImageFix"/><feBlend in="SourceGraphic" in2="BackgroundImageFix" result="shape"/><feGaussianBlur result="effect1_foregroundBlur_11440_73123" stdDeviation="7"/></filter></defs></svg>