<svg xmlns="http://www.w3.org/2000/svg" fill="none" viewBox="0 0 590 129" opt="1"><path fill="#000" fill-rule="evenodd" d="m19.154 24.296 1.42 1.409L3.409 43l17.165 17.296-1.42 1.409L.592 43zM571.354 100.704l-1.42-1.408L587.098 82l-17.164-17.296 1.42-1.408L589.916 82zM230.252 2 103.225 129l-1.403-1.425 127.027-127z" clip-rule="evenodd"/><path fill="#000" d="M133.287 60.075v-32.4h9.914q.492 0 1.719.023a19 19 0 0 1 2.345.18q3.73.495 6.23 2.745 2.523 2.227 3.796 5.67 1.272 3.441 1.272 7.582 0 4.14-1.272 7.583-1.273 3.442-3.796 5.692-2.5 2.228-6.23 2.723-1.116.135-2.367.18-1.228.022-1.697.022zm4.086-3.825h5.828q.849 0 1.898-.045 1.05-.067 1.831-.202 2.635-.495 4.265-2.228t2.389-4.32.759-5.58q0-3.06-.781-5.647-.76-2.588-2.389-4.298-1.63-1.71-4.243-2.183a12 12 0 0 0-1.853-.202q-1.072-.045-1.876-.045h-5.828zM123.953 60.075v-32.4h3.975v32.4zM102.18 60.075v-32.4h3.974v28.598h14.916v3.802zM79.32 60.075V46.597L68.49 27.675h4.622l8.217 14.333 8.195-14.333h4.622L83.34 46.597v13.478zM46.658 60.075v-32.4h12.527q2.88 0 4.912 1.192 2.055 1.193 3.126 3.15a8.36 8.36 0 0 1 1.094 4.185q0 2.633-1.34 4.613a6.8 6.8 0 0 1-3.617 2.723l-.044-1.103q3.103.833 4.823 3.06 1.719 2.227 1.719 5.31 0 2.835-1.161 4.905-1.139 2.07-3.305 3.218-2.144 1.147-5.09 1.147zm4.02-3.825h8.864q1.785 0 3.193-.653 1.407-.675 2.21-1.89.827-1.215.827-2.924 0-1.643-.737-2.948a5.3 5.3 0 0 0-2.032-2.07q-1.295-.787-3.014-.787h-9.312zm0-15.053h8.462q1.43 0 2.568-.607a4.7 4.7 0 0 0 1.83-1.755q.693-1.125.693-2.633 0-2.093-1.407-3.42-1.406-1.326-3.684-1.327h-8.463z"/><path fill="#000" fill-rule="evenodd" d="M190.316 40.241q-.41-2.81-1.489-5.163-1.742-3.804-5.091-5.94-3.35-2.139-8.172-2.138-4.802 0-8.15 2.137-3.35 2.137-5.114 5.94-1.741 3.803-1.741 8.798t1.741 8.798q1.764 3.802 5.114 5.94a12.8 12.8 0 0 0 3.217 1.464l3.236-3.261q-2.492-.317-4.31-1.556-2.39-1.665-3.595-4.59t-1.183-6.795q.022-3.892 1.228-6.84t3.573-4.59q2.388-1.642 5.984-1.62 3.594.022 5.984 1.665 2.412 1.642 3.595 4.567 1.206 2.925 1.206 6.818 0 .184-.003.367z" clip-rule="evenodd"/><path fill="#000" d="M543.508 99V66.6h3.974v28.598h14.916V99zM524.911 99.675q-4.8 0-8.15-2.138t-5.113-5.94q-1.742-3.802-1.742-8.797t1.742-8.797q1.764-3.803 5.113-5.94t8.15-2.138q4.824 0 8.173 2.138 3.35 2.136 5.091 5.94 1.741 3.802 1.741 8.797t-1.741 8.798q-1.741 3.801-5.091 5.94-3.35 2.137-8.173 2.137m0-3.825q3.596.022 5.984-1.62 2.412-1.665 3.595-4.612 1.206-2.948 1.206-6.818 0-3.892-1.206-6.817-1.183-2.925-3.595-4.568-2.388-1.642-5.984-1.665-3.594-.023-5.984 1.62-2.367 1.642-3.572 4.59t-1.229 6.84q-.022 3.87 1.184 6.795t3.595 4.59q2.412 1.643 6.006 1.665M493.98 99.675q-4.802 0-8.15-2.138-3.35-2.138-5.114-5.94-1.741-3.802-1.741-8.797t1.741-8.797q1.764-3.803 5.114-5.94 3.348-2.138 8.15-2.138 5.582 0 9.177 2.858 3.617 2.857 4.979 7.695l-4.041 1.08q-.983-3.623-3.506-5.716-2.523-2.091-6.609-2.092-3.596 0-5.984 1.642-2.39 1.644-3.595 4.59-1.206 2.925-1.229 6.818-.022 3.87 1.184 6.818 1.206 2.925 3.617 4.59 2.412 1.642 6.007 1.642 4.086 0 6.609-2.093 2.523-2.115 3.506-5.715l4.041 1.08q-1.362 4.815-4.979 7.696-3.596 2.857-9.177 2.857M462.611 99.675q-4.802 0-8.151-2.138t-5.113-5.94q-1.742-3.802-1.742-8.797t1.742-8.797q1.764-3.803 5.113-5.94t8.151-2.138q4.822 0 8.172 2.138 3.35 2.136 5.091 5.94 1.742 3.802 1.742 8.797t-1.742 8.798q-1.741 3.801-5.091 5.94-3.35 2.137-8.172 2.137m0-3.825q3.594.022 5.984-1.62 2.411-1.665 3.595-4.612 1.205-2.948 1.205-6.818 0-3.892-1.205-6.817-1.184-2.925-3.595-4.568-2.39-1.642-5.984-1.665-3.596-.023-5.985 1.62-2.366 1.642-3.572 4.59t-1.228 6.84q-.023 3.87 1.183 6.795t3.595 4.59q2.412 1.643 6.007 1.665M432.239 99V70.403h-10.964V66.6h25.902v3.803h-10.964V99zM406.677 99.675q-4.801 0-8.15-2.138t-5.113-5.94q-1.743-3.802-1.742-8.797 0-4.995 1.742-8.797 1.764-3.803 5.113-5.94t8.15-2.138q4.822 0 8.172 2.138 3.35 2.136 5.091 5.94 1.742 3.802 1.742 8.797t-1.742 8.798q-1.741 3.801-5.091 5.94-3.35 2.137-8.172 2.137m0-3.825q3.595.022 5.984-1.62 2.412-1.665 3.595-4.612 1.206-2.948 1.206-6.818 0-3.892-1.206-6.817-1.183-2.925-3.595-4.568-2.389-1.642-5.984-1.665t-5.984 1.62q-2.367 1.642-3.573 4.59t-1.228 6.84q-.022 3.87 1.183 6.795t3.595 4.59q2.412 1.643 6.007 1.665M366.188 99V66.6h12.705q.468 0 1.116.045.648.022 1.251.135 2.612.405 4.376 1.8a8.6 8.6 0 0 1 2.68 3.533q.893 2.115.893 4.702 0 3.757-1.943 6.525-1.943 2.745-5.694 3.443l-1.518.247h-9.892V99zm19.135 0-6.341-13.185 3.93-1.215 6.967 14.4zm-15.161-15.772h8.597q.425 0 .96-.045.558-.045 1.049-.158 1.54-.36 2.501-1.305a5.8 5.8 0 0 0 1.429-2.25q.447-1.305.447-2.655t-.447-2.632a5.76 5.76 0 0 0-1.429-2.273q-.96-.968-2.501-1.305a4.7 4.7 0 0 0-1.049-.157q-.536-.045-.96-.045h-8.597zM340.053 99V66.6h12.705q.47 0 1.116.045.648.022 1.251.135 2.612.405 4.376 1.8a8.6 8.6 0 0 1 2.68 3.533q.893 2.115.893 4.702 0 2.565-.916 4.703a8.8 8.8 0 0 1-2.679 3.532q-1.764 1.395-4.354 1.8-.603.09-1.251.135-.646.045-1.116.045h-8.731V99zm3.974-15.772h8.597q.424 0 .96-.045.558-.045 1.05-.158 1.54-.36 2.5-1.305a5.8 5.8 0 0 0 1.429-2.25q.447-1.305.447-2.655t-.447-2.632a5.76 5.76 0 0 0-1.429-2.273q-.96-.968-2.5-1.305a4.7 4.7 0 0 0-1.05-.157q-.536-.045-.96-.045h-8.597zM307.329 99.675q-3.304 0-6.028-1.17a13.3 13.3 0 0 1-4.689-3.352q-1.965-2.205-3.037-5.31-1.05-3.128-1.05-7.043 0-5.175 1.831-8.955t5.158-5.828q3.327-2.07 7.815-2.07 5.405 0 8.709 2.543 3.304 2.52 4.555 6.907l-4.019.833q-1.005-2.947-3.305-4.703-2.3-1.755-5.739-1.755-3.594-.022-5.984 1.62-2.367 1.62-3.572 4.568t-1.228 6.84q-.023 3.87 1.183 6.795t3.595 4.59q2.412 1.642 6.006 1.665 3.105.023 5.225-1.192 2.122-1.215 3.283-3.51t1.407-5.513h-6.833v-3.308h11.03q.067.45.067 1.08.023.609.023.833 0 4.433-1.653 7.943-1.629 3.486-4.845 5.49-3.194 2.002-7.905 2.002M264.6 99V66.6h4.019l16.769 25.313V66.6h4.019V99h-4.019l-16.769-25.335V99zM255.266 99V66.6h3.974V99zM228.857 99V66.6h3.975v15.21l14.067-15.21h5.002l-14.603 15.728L253.04 99h-5.136l-15.072-15.84V99zM199.139 99l10.762-32.4h5.538L226.201 99h-4.13L212 68.94h1.251L203.27 99zm5.18-7.582V87.66h16.702v3.758zM185.09 99V70.403h-10.963V66.6h25.902v3.803h-10.964V99z"/><path fill="#000" fill-rule="evenodd" d="M151.644 80.21q.1.105.203.205a9.5 9.5 0 0 0 2.233 1.552q1.25.608 2.59 1.013l8.195 2.453q.87.246 1.675.63.803.382 1.429.944.647.54 1.004 1.328.38.765.38 1.845 0 1.755-1.027 3.037-1.027 1.284-2.791 1.98-1.742.675-3.908.675-3.349 0-5.828-1.71-2.456-1.732-3.237-4.792l-4.109.652q.536 2.97 2.3 5.153 1.786 2.16 4.51 3.33 2.747 1.17 6.163 1.17 2.501 0 4.689-.653 2.188-.63 3.841-1.845a8.6 8.6 0 0 0 2.568-3.06q.938-1.822.938-4.162t-.849-3.87q-.849-1.552-2.144-2.475a11.2 11.2 0 0 0-2.679-1.463 28 28 0 0 0-2.412-.81l-6.118-1.777q-1.183-.338-2.434-.855a6.3 6.3 0 0 1-2.076-1.44l-.086-.097zm10.318-10.396q1.454.165 2.724.746a7.44 7.44 0 0 1 2.858 2.205q1.161 1.418 1.496 3.397l4.221-.742q-.581-2.948-2.278-5.062-1.675-2.115-4.242-3.24a12 12 0 0 0-1.536-.572z" clip-rule="evenodd"/></svg>